%TF.GenerationSoftware,KiCad,Pcbnew,8.0.1*%
%TF.CreationDate,2024-07-06T10:14:10-04:00*%
%TF.ProjectId,O2 Macrodevice NFC Board KiCad,4f32204d-6163-4726-9f64-657669636520,rev?*%
%TF.SameCoordinates,Original*%
%TF.FileFunction,Copper,L1,Top*%
%TF.FilePolarity,Positive*%
%FSLAX46Y46*%
G04 Gerber Fmt 4.6, Leading zero omitted, Abs format (unit mm)*
G04 Created by KiCad (PCBNEW 8.0.1) date 2024-07-06 10:14:10*
%MOMM*%
%LPD*%
G01*
G04 APERTURE LIST*
G04 Aperture macros list*
%AMRoundRect*
0 Rectangle with rounded corners*
0 $1 Rounding radius*
0 $2 $3 $4 $5 $6 $7 $8 $9 X,Y pos of 4 corners*
0 Add a 4 corners polygon primitive as box body*
4,1,4,$2,$3,$4,$5,$6,$7,$8,$9,$2,$3,0*
0 Add four circle primitives for the rounded corners*
1,1,$1+$1,$2,$3*
1,1,$1+$1,$4,$5*
1,1,$1+$1,$6,$7*
1,1,$1+$1,$8,$9*
0 Add four rect primitives between the rounded corners*
20,1,$1+$1,$2,$3,$4,$5,0*
20,1,$1+$1,$4,$5,$6,$7,0*
20,1,$1+$1,$6,$7,$8,$9,0*
20,1,$1+$1,$8,$9,$2,$3,0*%
G04 Aperture macros list end*
%TA.AperFunction,SMDPad,CuDef*%
%ADD10R,0.838200X0.762000*%
%TD*%
%TA.AperFunction,SMDPad,CuDef*%
%ADD11R,0.254000X0.812800*%
%TD*%
%TA.AperFunction,SMDPad,CuDef*%
%ADD12R,0.812800X0.254000*%
%TD*%
%TA.AperFunction,SMDPad,CuDef*%
%ADD13R,3.606800X3.606800*%
%TD*%
%TA.AperFunction,ComponentPad*%
%ADD14C,1.524000*%
%TD*%
%TA.AperFunction,SMDPad,CuDef*%
%ADD15RoundRect,0.155000X0.155000X-0.212500X0.155000X0.212500X-0.155000X0.212500X-0.155000X-0.212500X0*%
%TD*%
%TA.AperFunction,SMDPad,CuDef*%
%ADD16RoundRect,0.155000X-0.155000X0.212500X-0.155000X-0.212500X0.155000X-0.212500X0.155000X0.212500X0*%
%TD*%
%TA.AperFunction,SMDPad,CuDef*%
%ADD17RoundRect,0.155000X-0.212500X-0.155000X0.212500X-0.155000X0.212500X0.155000X-0.212500X0.155000X0*%
%TD*%
%TA.AperFunction,SMDPad,CuDef*%
%ADD18RoundRect,0.155000X0.212500X0.155000X-0.212500X0.155000X-0.212500X-0.155000X0.212500X-0.155000X0*%
%TD*%
%TA.AperFunction,Conductor*%
%ADD19C,0.200000*%
%TD*%
G04 APERTURE END LIST*
D10*
%TO.P,U2,1,1*%
%TO.N,Net-(U1-XTO)*%
X131675000Y-96975000D03*
%TO.P,U2,2,GND*%
%TO.N,GND*%
X130325000Y-96975000D03*
%TO.P,U2,3,3*%
%TO.N,Net-(U1-XTI)*%
X130325000Y-98025000D03*
%TO.P,U2,4,GND*%
%TO.N,GND*%
X131675000Y-98025000D03*
%TD*%
D11*
%TO.P,U1,1,VDD_IO*%
%TO.N,+3.3V*%
X136250001Y-89400300D03*
%TO.P,U1,2,TAD2*%
%TO.N,unconnected-(U1-TAD2-Pad2)*%
X136750000Y-89400300D03*
%TO.P,U1,3,VDD_D*%
%TO.N,Net-(U1-VDD_D)*%
X137249999Y-89400300D03*
%TO.P,U1,4,XTO*%
%TO.N,Net-(U1-XTO)*%
X137750000Y-89400300D03*
%TO.P,U1,5,XTI*%
%TO.N,Net-(U1-XTI)*%
X138250000Y-89400300D03*
%TO.P,U1,6,GND_D*%
%TO.N,GND*%
X138750001Y-89400300D03*
%TO.P,U1,7,VDD_A*%
%TO.N,Net-(U1-VDD_A)*%
X139250000Y-89400300D03*
%TO.P,U1,8,VDD*%
%TO.N,Net-(U1-VDD)*%
X139749999Y-89400300D03*
D12*
%TO.P,U1,9,VDD_RF*%
%TO.N,Net-(U1-VDD_DR)*%
X140400300Y-88749999D03*
%TO.P,U1,10,VDD_TX*%
%TO.N,Net-(U1-VDD)*%
X140400300Y-88250000D03*
%TO.P,U1,11,VDD_AM*%
%TO.N,Net-(U1-VDD_AM)*%
X140400300Y-87750001D03*
%TO.P,U1,12,GND_DR1*%
%TO.N,GND*%
X140400300Y-87250000D03*
%TO.P,U1,13,RFO1*%
%TO.N,/RFO1*%
X140400300Y-86750000D03*
%TO.P,U1,14,VDD_DR*%
%TO.N,Net-(U1-VDD_DR)*%
X140400300Y-86249999D03*
%TO.P,U1,15,RFO2*%
%TO.N,/RFO2*%
X140400300Y-85750000D03*
%TO.P,U1,16,GND_DR2*%
%TO.N,GND*%
X140400300Y-85250001D03*
D11*
%TO.P,U1,17,EXT_LM*%
%TO.N,unconnected-(U1-EXT_LM-Pad17)*%
X139749999Y-84599700D03*
%TO.P,U1,18,AAT_A*%
%TO.N,unconnected-(U1-AAT_A-Pad18)*%
X139250000Y-84599700D03*
%TO.P,U1,19,AAT_B*%
%TO.N,unconnected-(U1-AAT_B-Pad19)*%
X138750001Y-84599700D03*
%TO.P,U1,20,I2C_EN*%
%TO.N,GND*%
X138250000Y-84599700D03*
%TO.P,U1,21,VSS*%
X137750000Y-84599700D03*
%TO.P,U1,22,RFI1*%
%TO.N,unconnected-(U1-RFI1-Pad22)*%
X137249999Y-84599700D03*
%TO.P,U1,23,RFI2*%
%TO.N,unconnected-(U1-RFI2-Pad23)*%
X136750000Y-84599700D03*
%TO.P,U1,24,AGDC*%
%TO.N,Net-(U1-AGDC)*%
X136250001Y-84599700D03*
D12*
%TO.P,U1,25,TAD1*%
%TO.N,unconnected-(U1-TAD1-Pad25)*%
X135599700Y-85250001D03*
%TO.P,U1,26,GND_A*%
%TO.N,GND*%
X135599700Y-85750000D03*
%TO.P,U1,27,IRQ*%
%TO.N,/IRQ*%
X135599700Y-86249999D03*
%TO.P,U1,28,MCU_CLK*%
%TO.N,unconnected-(U1-MCU_CLK-Pad28)*%
X135599700Y-86750000D03*
%TO.P,U1,29,BSS*%
%TO.N,/BSS*%
X135599700Y-87250000D03*
%TO.P,U1,30,SCLK/SCL*%
%TO.N,/SPI1_SCK*%
X135599700Y-87750001D03*
%TO.P,U1,31,MOSI*%
%TO.N,/MOSI*%
X135599700Y-88250000D03*
%TO.P,U1,32,MISO/SDA*%
%TO.N,/MISO*%
X135599700Y-88749999D03*
D13*
%TO.P,U1,33,GND*%
%TO.N,GND*%
X138000000Y-87000000D03*
%TD*%
D14*
%TO.P,J1,1,1*%
%TO.N,GND*%
X120500000Y-95890000D03*
%TO.P,J1,2,2*%
%TO.N,+3.3V*%
X120500000Y-93350000D03*
%TO.P,J1,3,3*%
%TO.N,/MISO*%
X120500000Y-90810000D03*
%TO.P,J1,4,4*%
%TO.N,/MOSI*%
X120500000Y-88270000D03*
%TO.P,J1,5,5*%
%TO.N,/SPI1_SCK*%
X120500000Y-85730000D03*
%TO.P,J1,6,6*%
%TO.N,/BSS*%
X120500000Y-83190000D03*
%TO.P,J1,7,7*%
%TO.N,/IRQ*%
X120500000Y-80650000D03*
%TO.P,J1,8,8*%
%TO.N,/8*%
X120500000Y-78110000D03*
%TD*%
D15*
%TO.P,C205,1*%
%TO.N,Net-(U1-VDD_DR)*%
X149000000Y-78500000D03*
%TO.P,C205,2*%
%TO.N,GND*%
X149000000Y-77365000D03*
%TD*%
%TO.P,C203,1*%
%TO.N,Net-(U1-VDD_AM)*%
X148500000Y-83067500D03*
%TO.P,C203,2*%
%TO.N,GND*%
X148500000Y-81932500D03*
%TD*%
%TO.P,C207,1*%
%TO.N,Net-(U1-VDD)*%
X144500000Y-87067500D03*
%TO.P,C207,2*%
%TO.N,GND*%
X144500000Y-85932500D03*
%TD*%
%TO.P,C215,1*%
%TO.N,Net-(U1-VDD)*%
X144500000Y-91635000D03*
%TO.P,C215,2*%
%TO.N,GND*%
X144500000Y-90500000D03*
%TD*%
%TO.P,C206,1*%
%TO.N,Net-(U1-VDD)*%
X148500000Y-87067500D03*
%TO.P,C206,2*%
%TO.N,GND*%
X148500000Y-85932500D03*
%TD*%
D16*
%TO.P,C201,1*%
%TO.N,Net-(U1-AGDC)*%
X139000000Y-77432500D03*
%TO.P,C201,2*%
%TO.N,GND*%
X139000000Y-78567500D03*
%TD*%
D15*
%TO.P,C216,1*%
%TO.N,Net-(U1-VDD)*%
X148500000Y-91567500D03*
%TO.P,C216,2*%
%TO.N,GND*%
X148500000Y-90432500D03*
%TD*%
%TO.P,C209,1*%
%TO.N,Net-(U1-VDD_D)*%
X131500000Y-93635000D03*
%TO.P,C209,2*%
%TO.N,GND*%
X131500000Y-92500000D03*
%TD*%
%TO.P,C211,1*%
%TO.N,Net-(U1-VDD_A)*%
X141000000Y-99567500D03*
%TO.P,C211,2*%
%TO.N,GND*%
X141000000Y-98432500D03*
%TD*%
%TO.P,C204,1*%
%TO.N,Net-(U1-VDD_DR)*%
X144500000Y-78567500D03*
%TO.P,C204,2*%
%TO.N,GND*%
X144500000Y-77432500D03*
%TD*%
%TO.P,C200,1*%
%TO.N,GND*%
X135000000Y-78567500D03*
%TO.P,C200,2*%
%TO.N,Net-(U1-AGDC)*%
X135000000Y-77432500D03*
%TD*%
D17*
%TO.P,C214,1*%
%TO.N,Net-(U1-XTI)*%
X130432500Y-101000000D03*
%TO.P,C214,2*%
%TO.N,GND*%
X131567500Y-101000000D03*
%TD*%
D18*
%TO.P,C213,2*%
%TO.N,GND*%
X130432500Y-99500000D03*
%TO.P,C213,1*%
%TO.N,Net-(U1-XTO)*%
X131567500Y-99500000D03*
%TD*%
D15*
%TO.P,C210,1*%
%TO.N,Net-(U1-VDD_D)*%
X127500000Y-93635000D03*
%TO.P,C210,2*%
%TO.N,GND*%
X127500000Y-92500000D03*
%TD*%
%TO.P,C202,1*%
%TO.N,Net-(U1-VDD_AM)*%
X144500000Y-83067500D03*
%TO.P,C202,2*%
%TO.N,GND*%
X144500000Y-81932500D03*
%TD*%
%TO.P,C212,1*%
%TO.N,Net-(U1-VDD_A)*%
X145000000Y-99567500D03*
%TO.P,C212,2*%
%TO.N,GND*%
X145000000Y-98432500D03*
%TD*%
D19*
%TO.N,GND*%
X146500000Y-80500000D02*
X146500000Y-81932500D01*
%TO.N,/RFO1*%
X142500000Y-85500000D02*
X142500000Y-84000000D01*
X142500000Y-86500000D02*
X142500000Y-85500000D01*
%TO.N,/RFO2*%
X141033701Y-85750000D02*
X141500000Y-85283701D01*
X141500000Y-85283701D02*
X141500000Y-84000000D01*
X140400300Y-85750000D02*
X141033701Y-85750000D01*
%TO.N,/RFO1*%
X142250000Y-86750000D02*
X142500000Y-86500000D01*
X140400300Y-86750000D02*
X142250000Y-86750000D01*
%TO.N,GND*%
X142750000Y-87250000D02*
X140400300Y-87250000D01*
X143000000Y-87000000D02*
X142750000Y-87250000D01*
X144500000Y-81932500D02*
X143067500Y-81932500D01*
X143067500Y-81932500D02*
X143000000Y-82000000D01*
X143000000Y-82000000D02*
X143000000Y-87000000D01*
%TO.N,Net-(U1-VDD_AM)*%
X143500000Y-87500000D02*
X143500000Y-85631372D01*
X143249999Y-87750001D02*
X143500000Y-87500000D01*
X140400300Y-87750001D02*
X143249999Y-87750001D01*
X143500000Y-85631372D02*
X144500000Y-84631372D01*
%TO.N,GND*%
X146500000Y-77432500D02*
X146500000Y-76000000D01*
X146500000Y-77432500D02*
X148932500Y-77432500D01*
X144500000Y-77432500D02*
X146500000Y-77432500D01*
X147500000Y-85932500D02*
X148500000Y-85932500D01*
X146500000Y-81932500D02*
X148500000Y-81932500D01*
X144500000Y-85932500D02*
X147500000Y-85932500D01*
X144500000Y-81932500D02*
X146500000Y-81932500D01*
X117500000Y-76000000D02*
X131000000Y-76000000D01*
X116600000Y-76900000D02*
X117500000Y-76000000D01*
X116600000Y-91990000D02*
X116600000Y-76900000D01*
X120500000Y-95890000D02*
X116600000Y-91990000D01*
X123040000Y-95890000D02*
X129550000Y-102400000D01*
X120500000Y-95890000D02*
X123040000Y-95890000D01*
%TO.N,+3.3V*%
X133817801Y-91832500D02*
X136250001Y-89400300D01*
X122017500Y-91832500D02*
X133817801Y-91832500D01*
X120500000Y-93350000D02*
X122017500Y-91832500D01*
X136323000Y-89400300D02*
X136323000Y-89500000D01*
X136250001Y-89400300D02*
X136323000Y-89400300D01*
%TO.N,GND*%
X124466250Y-95533750D02*
X127500000Y-92500000D01*
X124466250Y-96033750D02*
X124466250Y-95533750D01*
X124466250Y-96033750D02*
X125407500Y-96975000D01*
X124322500Y-95890000D02*
X124466250Y-96033750D01*
X125407500Y-96975000D02*
X130325000Y-96975000D01*
X120500000Y-95890000D02*
X124322500Y-95890000D01*
X135500000Y-102400000D02*
X135500000Y-101000000D01*
X135500000Y-102400000D02*
X137100000Y-102400000D01*
X129550000Y-102400000D02*
X135500000Y-102400000D01*
X131567500Y-101000000D02*
X133000000Y-101000000D01*
X137100000Y-102400000D02*
X138750001Y-100749999D01*
%TO.N,Net-(U1-XTI)*%
X138250000Y-97250000D02*
X138250000Y-89400300D01*
X133500000Y-102000000D02*
X138250000Y-97250000D01*
X131432500Y-102000000D02*
X133500000Y-102000000D01*
X130432500Y-101000000D02*
X131432500Y-102000000D01*
X129765000Y-100332500D02*
X129765000Y-98585000D01*
X129765000Y-98585000D02*
X130325000Y-98025000D01*
X130432500Y-101000000D02*
X129765000Y-100332500D01*
%TO.N,Net-(U1-XTO)*%
X134216250Y-96851250D02*
X134216250Y-95216250D01*
X131567500Y-99500000D02*
X134216250Y-96851250D01*
X134216250Y-95216250D02*
X137750000Y-91682500D01*
X132457500Y-96975000D02*
X134216250Y-95216250D01*
%TO.N,GND*%
X130432500Y-99865000D02*
X131567500Y-101000000D01*
X130432500Y-99500000D02*
X130432500Y-99865000D01*
X131675000Y-98257500D02*
X130432500Y-99500000D01*
X131675000Y-98025000D02*
X131675000Y-98257500D01*
%TO.N,Net-(U1-XTO)*%
X131675000Y-96975000D02*
X132457500Y-96975000D01*
%TO.N,GND*%
X147000000Y-100432500D02*
X145000000Y-98432500D01*
X147000000Y-101000000D02*
X147000000Y-100432500D01*
X146500000Y-101500000D02*
X147000000Y-101000000D01*
X139500002Y-101500000D02*
X146500000Y-101500000D01*
X138750001Y-89400300D02*
X138750001Y-100749999D01*
X138750001Y-100749999D02*
X139500002Y-101500000D01*
%TO.N,Net-(U1-XTO)*%
X137750000Y-91682500D02*
X137750000Y-89400300D01*
%TO.N,GND*%
X135000000Y-78567500D02*
X135000000Y-79000000D01*
X150000000Y-89500000D02*
X149067500Y-90432500D01*
X137750000Y-81750000D02*
X137750000Y-84599700D01*
X148500000Y-85932500D02*
X148932500Y-85932500D01*
X150000000Y-85000000D02*
X149067500Y-85932500D01*
X140400300Y-84116601D02*
X139000000Y-82716301D01*
X135599700Y-85750000D02*
X134966299Y-85750000D01*
X143067500Y-76000000D02*
X144500000Y-77432500D01*
X145067500Y-90432500D02*
X148500000Y-90432500D01*
X141000000Y-98432500D02*
X145000000Y-98432500D01*
X138250000Y-82250000D02*
X137750000Y-81750000D01*
X138250000Y-84599700D02*
X138250000Y-82250000D01*
X135000000Y-78567500D02*
X139000000Y-78567500D01*
X131000000Y-81783701D02*
X131000000Y-76000000D01*
X135000000Y-79000000D02*
X137750000Y-81750000D01*
X139000000Y-82716301D02*
X139000000Y-78567500D01*
X149067500Y-85932500D02*
X148500000Y-85932500D01*
X143365000Y-78567500D02*
X144500000Y-77432500D01*
X148932500Y-81932500D02*
X150000000Y-83000000D01*
X148932500Y-85932500D02*
X150000000Y-87000000D01*
X150000000Y-87000000D02*
X150000000Y-89500000D01*
X145000000Y-90500000D02*
X145067500Y-90432500D01*
X150000000Y-83000000D02*
X150000000Y-85000000D01*
X148932500Y-77432500D02*
X149000000Y-77365000D01*
X131000000Y-76000000D02*
X143067500Y-76000000D01*
X127500000Y-92500000D02*
X131500000Y-92500000D01*
X134966299Y-85750000D02*
X131000000Y-81783701D01*
X140400300Y-85250001D02*
X140400300Y-84116601D01*
X148500000Y-81932500D02*
X148932500Y-81932500D01*
X149067500Y-90432500D02*
X148500000Y-90432500D01*
X144500000Y-90500000D02*
X145000000Y-90500000D01*
X139000000Y-78567500D02*
X143365000Y-78567500D01*
%TO.N,Net-(U1-AGDC)*%
X135000000Y-77432500D02*
X139000000Y-77432500D01*
X136250001Y-83750001D02*
X136250001Y-84599700D01*
X132067500Y-77432500D02*
X132000000Y-77500000D01*
X135000000Y-77432500D02*
X132067500Y-77432500D01*
X132000000Y-79500000D02*
X136250001Y-83750001D01*
X132000000Y-77500000D02*
X132000000Y-79500000D01*
%TO.N,Net-(U1-VDD_AM)*%
X144500000Y-83067500D02*
X144500000Y-84631372D01*
X144500000Y-83067500D02*
X148500000Y-83067500D01*
%TO.N,Net-(U1-VDD_DR)*%
X147000000Y-78567500D02*
X148932500Y-78567500D01*
X146500000Y-78567500D02*
X148067500Y-78567500D01*
X142000000Y-81067500D02*
X144500000Y-78567500D01*
X148067500Y-78567500D02*
X151500000Y-82000000D01*
X142000000Y-86000000D02*
X142000000Y-81067500D01*
X141750001Y-86249999D02*
X142000000Y-86000000D01*
X144500000Y-78567500D02*
X146500000Y-78567500D01*
X147000000Y-78567500D02*
X148067500Y-78567500D01*
X151500000Y-82000000D02*
X151500000Y-92500000D01*
X150000000Y-94000000D02*
X145650301Y-94000000D01*
X146500000Y-78567500D02*
X147000000Y-78567500D01*
X145650301Y-94000000D02*
X140400300Y-88749999D01*
X148932500Y-78567500D02*
X149000000Y-78500000D01*
X140400300Y-86249999D02*
X141750001Y-86249999D01*
X151500000Y-92500000D02*
X150000000Y-94000000D01*
%TO.N,Net-(U1-VDD)*%
X143317500Y-89500000D02*
X143317500Y-90452500D01*
X144500000Y-87067500D02*
X148500000Y-87067500D01*
X148432500Y-91635000D02*
X148500000Y-91567500D01*
X140400300Y-88250000D02*
X143317500Y-88250000D01*
X143317500Y-90452500D02*
X144500000Y-91635000D01*
X143317500Y-88250000D02*
X143317500Y-89500000D01*
X143317500Y-88250000D02*
X144500000Y-87067500D01*
X144500000Y-91635000D02*
X148432500Y-91635000D01*
%TO.N,Net-(U1-VDD_D)*%
X133648700Y-93635000D02*
X137249999Y-90033701D01*
X137249999Y-90033701D02*
X137249999Y-89400300D01*
X131500000Y-93635000D02*
X133648700Y-93635000D01*
X127500000Y-93635000D02*
X131500000Y-93635000D01*
%TO.N,Net-(U1-VDD_A)*%
X139250000Y-97817500D02*
X141000000Y-99567500D01*
X139250000Y-89400300D02*
X139250000Y-97817500D01*
X141000000Y-99567500D02*
X145000000Y-99567500D01*
%TO.N,/MISO*%
X120500000Y-90810000D02*
X133539699Y-90810000D01*
X133539699Y-90810000D02*
X135599700Y-88749999D01*
%TO.N,/IRQ*%
X120500000Y-80650000D02*
X126099999Y-86249999D01*
X126099999Y-86249999D02*
X135599700Y-86249999D01*
%TO.N,/BSS*%
X124560000Y-87250000D02*
X135599700Y-87250000D01*
X120500000Y-83190000D02*
X124560000Y-87250000D01*
%TO.N,/MOSI*%
X135579700Y-88270000D02*
X135599700Y-88250000D01*
X120500000Y-88270000D02*
X135579700Y-88270000D01*
%TO.N,/SPI1_SCK*%
X120500000Y-85730000D02*
X122520001Y-87750001D01*
X122520001Y-87750001D02*
X135599700Y-87750001D01*
%TD*%
M02*
