%TF.GenerationSoftware,KiCad,Pcbnew,8.0.1*%
%TF.CreationDate,2024-07-06T10:14:10-04:00*%
%TF.ProjectId,O2 Macrodevice NFC Board KiCad,4f32204d-6163-4726-9f64-657669636520,rev?*%
%TF.SameCoordinates,Original*%
%TF.FileFunction,Paste,Top*%
%TF.FilePolarity,Positive*%
%FSLAX46Y46*%
G04 Gerber Fmt 4.6, Leading zero omitted, Abs format (unit mm)*
G04 Created by KiCad (PCBNEW 8.0.1) date 2024-07-06 10:14:10*
%MOMM*%
%LPD*%
G01*
G04 APERTURE LIST*
G04 Aperture macros list*
%AMRoundRect*
0 Rectangle with rounded corners*
0 $1 Rounding radius*
0 $2 $3 $4 $5 $6 $7 $8 $9 X,Y pos of 4 corners*
0 Add a 4 corners polygon primitive as box body*
4,1,4,$2,$3,$4,$5,$6,$7,$8,$9,$2,$3,0*
0 Add four circle primitives for the rounded corners*
1,1,$1+$1,$2,$3*
1,1,$1+$1,$4,$5*
1,1,$1+$1,$6,$7*
1,1,$1+$1,$8,$9*
0 Add four rect primitives between the rounded corners*
20,1,$1+$1,$2,$3,$4,$5,0*
20,1,$1+$1,$4,$5,$6,$7,0*
20,1,$1+$1,$6,$7,$8,$9,0*
20,1,$1+$1,$8,$9,$2,$3,0*%
G04 Aperture macros list end*
%ADD10C,0.000000*%
%ADD11R,0.838200X0.762000*%
%ADD12R,0.254000X0.812800*%
%ADD13R,0.812800X0.254000*%
%ADD14R,3.606800X3.606800*%
%ADD15RoundRect,0.155000X0.155000X-0.212500X0.155000X0.212500X-0.155000X0.212500X-0.155000X-0.212500X0*%
%ADD16RoundRect,0.155000X-0.155000X0.212500X-0.155000X-0.212500X0.155000X-0.212500X0.155000X0.212500X0*%
%ADD17RoundRect,0.155000X-0.212500X-0.155000X0.212500X-0.155000X0.212500X0.155000X-0.212500X0.155000X0*%
%ADD18RoundRect,0.155000X0.212500X0.155000X-0.212500X0.155000X-0.212500X-0.155000X0.212500X-0.155000X0*%
G04 APERTURE END LIST*
D10*
%TO.C,U1*%
G36*
X137900000Y-88703400D02*
G01*
X136296600Y-88703400D01*
X136296600Y-87100000D01*
X137900000Y-87100000D01*
X137900000Y-88703400D01*
G37*
G36*
X139703400Y-88703400D02*
G01*
X138100000Y-88703400D01*
X138100000Y-87100000D01*
X139703400Y-87100000D01*
X139703400Y-88703400D01*
G37*
G36*
X137900000Y-86900000D02*
G01*
X136296600Y-86900000D01*
X136296600Y-85296600D01*
X137900000Y-85296600D01*
X137900000Y-86900000D01*
G37*
G36*
X139703400Y-86900000D02*
G01*
X138100000Y-86900000D01*
X138100000Y-85296600D01*
X139703400Y-85296600D01*
X139703400Y-86900000D01*
G37*
%TD*%
D11*
%TO.C,U2*%
X131675000Y-96975000D03*
X130325000Y-96975000D03*
X130325000Y-98025000D03*
X131675000Y-98025000D03*
%TD*%
D12*
%TO.C,U1*%
X136250001Y-89400300D03*
X136750000Y-89400300D03*
X137249999Y-89400300D03*
X137750000Y-89400300D03*
X138250000Y-89400300D03*
X138750001Y-89400300D03*
X139250000Y-89400300D03*
X139749999Y-89400300D03*
D13*
X140400300Y-88749999D03*
X140400300Y-88250000D03*
X140400300Y-87750001D03*
X140400300Y-87250000D03*
X140400300Y-86750000D03*
X140400300Y-86249999D03*
X140400300Y-85750000D03*
X140400300Y-85250001D03*
D12*
X139749999Y-84599700D03*
X139250000Y-84599700D03*
X138750001Y-84599700D03*
X138250000Y-84599700D03*
X137750000Y-84599700D03*
X137249999Y-84599700D03*
X136750000Y-84599700D03*
X136250001Y-84599700D03*
D13*
X135599700Y-85250001D03*
X135599700Y-85750000D03*
X135599700Y-86249999D03*
X135599700Y-86750000D03*
X135599700Y-87250000D03*
X135599700Y-87750001D03*
X135599700Y-88250000D03*
X135599700Y-88749999D03*
D14*
X138000000Y-87000000D03*
%TD*%
D15*
%TO.C,C205*%
X149000000Y-78500000D03*
X149000000Y-77365000D03*
%TD*%
%TO.C,C203*%
X148500000Y-83067500D03*
X148500000Y-81932500D03*
%TD*%
%TO.C,C207*%
X144500000Y-87067500D03*
X144500000Y-85932500D03*
%TD*%
%TO.C,C215*%
X144500000Y-91635000D03*
X144500000Y-90500000D03*
%TD*%
%TO.C,C206*%
X148500000Y-87067500D03*
X148500000Y-85932500D03*
%TD*%
D16*
%TO.C,C201*%
X139000000Y-77432500D03*
X139000000Y-78567500D03*
%TD*%
D15*
%TO.C,C216*%
X148500000Y-91567500D03*
X148500000Y-90432500D03*
%TD*%
%TO.C,C209*%
X131500000Y-93635000D03*
X131500000Y-92500000D03*
%TD*%
%TO.C,C211*%
X141000000Y-99567500D03*
X141000000Y-98432500D03*
%TD*%
%TO.C,C204*%
X144500000Y-78567500D03*
X144500000Y-77432500D03*
%TD*%
%TO.C,C200*%
X135000000Y-78567500D03*
X135000000Y-77432500D03*
%TD*%
D17*
%TO.C,C214*%
X130432500Y-101000000D03*
X131567500Y-101000000D03*
%TD*%
D18*
%TO.C,C213*%
X130432500Y-99500000D03*
X131567500Y-99500000D03*
%TD*%
D15*
%TO.C,C210*%
X127500000Y-93635000D03*
X127500000Y-92500000D03*
%TD*%
%TO.C,C202*%
X144500000Y-83067500D03*
X144500000Y-81932500D03*
%TD*%
%TO.C,C212*%
X145000000Y-99567500D03*
X145000000Y-98432500D03*
%TD*%
M02*
