%TF.GenerationSoftware,KiCad,Pcbnew,8.0.1*%
%TF.CreationDate,2024-07-06T23:02:20-04:00*%
%TF.ProjectId,ST25R3911B,53543235-5233-4393-9131-422e6b696361,rev?*%
%TF.SameCoordinates,Original*%
%TF.FileFunction,Paste,Top*%
%TF.FilePolarity,Positive*%
%FSLAX46Y46*%
G04 Gerber Fmt 4.6, Leading zero omitted, Abs format (unit mm)*
G04 Created by KiCad (PCBNEW 8.0.1) date 2024-07-06 23:02:20*
%MOMM*%
%LPD*%
G01*
G04 APERTURE LIST*
G04 Aperture macros list*
%AMRoundRect*
0 Rectangle with rounded corners*
0 $1 Rounding radius*
0 $2 $3 $4 $5 $6 $7 $8 $9 X,Y pos of 4 corners*
0 Add a 4 corners polygon primitive as box body*
4,1,4,$2,$3,$4,$5,$6,$7,$8,$9,$2,$3,0*
0 Add four circle primitives for the rounded corners*
1,1,$1+$1,$2,$3*
1,1,$1+$1,$4,$5*
1,1,$1+$1,$6,$7*
1,1,$1+$1,$8,$9*
0 Add four rect primitives between the rounded corners*
20,1,$1+$1,$2,$3,$4,$5,0*
20,1,$1+$1,$4,$5,$6,$7,0*
20,1,$1+$1,$6,$7,$8,$9,0*
20,1,$1+$1,$8,$9,$2,$3,0*%
%AMFreePoly0*
4,1,19,0.290204,0.301344,0.321117,0.247801,0.322490,0.232106,0.322490,-0.157228,0.301344,-0.215326,0.296017,-0.221139,0.221139,-0.296017,0.165105,-0.322146,0.157228,-0.322490,-0.232106,-0.322490,-0.290204,-0.301344,-0.321117,-0.247801,-0.322490,-0.232106,-0.322490,0.232106,-0.301344,0.290204,-0.247801,0.321117,-0.232106,0.322490,0.232106,0.322490,0.290204,0.301344,0.290204,0.301344,
$1*%
%AMFreePoly1*
4,1,21,0.231572,0.385173,0.236504,0.380653,0.300030,0.317127,0.322198,0.269587,0.322490,0.262904,0.322490,-0.262904,0.304550,-0.312195,0.300030,-0.317127,0.236504,-0.380653,0.188964,-0.402821,0.182281,-0.403113,-0.245807,-0.403113,-0.295098,-0.385173,-0.321325,-0.339746,-0.322490,-0.326430,-0.322490,0.326430,-0.304550,0.375721,-0.259123,0.401948,-0.245807,0.403113,0.182281,0.403113,
0.231572,0.385173,0.231572,0.385173,$1*%
%AMFreePoly2*
4,1,19,0.215326,0.301344,0.221139,0.296017,0.296017,0.221139,0.322146,0.165105,0.322490,0.157228,0.322490,-0.232106,0.301344,-0.290204,0.247801,-0.321117,0.232106,-0.322490,-0.232106,-0.322490,-0.290204,-0.301344,-0.321117,-0.247801,-0.322490,-0.232106,-0.322490,0.232106,-0.301344,0.290204,-0.247801,0.321117,-0.232106,0.322490,0.157228,0.322490,0.215326,0.301344,0.215326,0.301344,
$1*%
%AMFreePoly3*
4,1,21,0.375721,0.304550,0.401948,0.259123,0.403113,0.245807,0.403113,-0.182281,0.385173,-0.231572,0.380653,-0.236504,0.317127,-0.300030,0.269587,-0.322198,0.262904,-0.322490,-0.262904,-0.322490,-0.312195,-0.304550,-0.317127,-0.300030,-0.380653,-0.236504,-0.402821,-0.188964,-0.403113,-0.182281,-0.403113,0.245807,-0.385173,0.295098,-0.339746,0.321325,-0.326430,0.322490,0.326430,0.322490,
0.375721,0.304550,0.375721,0.304550,$1*%
%AMFreePoly4*
4,1,21,0.312195,0.304550,0.317127,0.300030,0.380653,0.236504,0.402821,0.188964,0.403113,0.182281,0.403113,-0.245807,0.385173,-0.295098,0.339746,-0.321325,0.326430,-0.322490,-0.326430,-0.322490,-0.375721,-0.304550,-0.401948,-0.259123,-0.403113,-0.245807,-0.403113,0.182281,-0.385173,0.231572,-0.380653,0.236504,-0.317127,0.300030,-0.269587,0.322198,-0.262904,0.322490,0.262904,0.322490,
0.312195,0.304550,0.312195,0.304550,$1*%
%AMFreePoly5*
4,1,19,0.290204,0.301344,0.321117,0.247801,0.322490,0.232106,0.322490,-0.232106,0.301344,-0.290204,0.247801,-0.321117,0.232106,-0.322490,-0.157228,-0.322490,-0.215326,-0.301344,-0.221139,-0.296017,-0.296017,-0.221139,-0.322146,-0.165105,-0.322490,-0.157228,-0.322490,0.232106,-0.301344,0.290204,-0.247801,0.321117,-0.232106,0.322490,0.232106,0.322490,0.290204,0.301344,0.290204,0.301344,
$1*%
%AMFreePoly6*
4,1,21,0.295098,0.385173,0.321325,0.339746,0.322490,0.326430,0.322490,-0.326430,0.304550,-0.375721,0.259123,-0.401948,0.245807,-0.403113,-0.182281,-0.403113,-0.231572,-0.385173,-0.236504,-0.380653,-0.300030,-0.317127,-0.322198,-0.269587,-0.322490,-0.262904,-0.322490,0.262904,-0.304550,0.312195,-0.300030,0.317127,-0.236504,0.380653,-0.188964,0.402821,-0.182281,0.403113,0.245807,0.403113,
0.295098,0.385173,0.295098,0.385173,$1*%
%AMFreePoly7*
4,1,19,0.290204,0.301344,0.321117,0.247801,0.322490,0.232106,0.322490,-0.232106,0.301344,-0.290204,0.247801,-0.321117,0.232106,-0.322490,-0.232106,-0.322490,-0.290204,-0.301344,-0.321117,-0.247801,-0.322490,-0.232106,-0.322490,0.157228,-0.301344,0.215326,-0.296017,0.221139,-0.221139,0.296017,-0.165105,0.322146,-0.157228,0.322490,0.232106,0.322490,0.290204,0.301344,0.290204,0.301344,
$1*%
G04 Aperture macros list end*
%ADD10RoundRect,0.155000X-0.155000X0.212500X-0.155000X-0.212500X0.155000X-0.212500X0.155000X0.212500X0*%
%ADD11R,0.838200X0.762000*%
%ADD12RoundRect,0.155000X0.155000X-0.212500X0.155000X0.212500X-0.155000X0.212500X-0.155000X-0.212500X0*%
%ADD13FreePoly0,0.000000*%
%ADD14FreePoly1,0.000000*%
%ADD15FreePoly2,0.000000*%
%ADD16FreePoly3,0.000000*%
%ADD17RoundRect,0.201557X-0.201556X-0.201556X0.201556X-0.201556X0.201556X0.201556X-0.201556X0.201556X0*%
%ADD18FreePoly4,0.000000*%
%ADD19FreePoly5,0.000000*%
%ADD20FreePoly6,0.000000*%
%ADD21FreePoly7,0.000000*%
%ADD22RoundRect,0.062500X-0.337500X-0.062500X0.337500X-0.062500X0.337500X0.062500X-0.337500X0.062500X0*%
%ADD23RoundRect,0.062500X-0.062500X-0.337500X0.062500X-0.337500X0.062500X0.337500X-0.062500X0.337500X0*%
%ADD24RoundRect,0.155000X-0.212500X-0.155000X0.212500X-0.155000X0.212500X0.155000X-0.212500X0.155000X0*%
G04 APERTURE END LIST*
D10*
%TO.C,C312*%
X155500000Y-108932500D03*
X155500000Y-110067500D03*
%TD*%
D11*
%TO.C,U2*%
X132175000Y-115975000D03*
X130825000Y-115975000D03*
X130825000Y-117025000D03*
X132175000Y-117025000D03*
%TD*%
D12*
%TO.C,C311*%
X142000000Y-111567500D03*
X142000000Y-110432500D03*
%TD*%
D13*
%TO.C,U1*%
X146650000Y-110850000D03*
D14*
X146650000Y-111750000D03*
X146650000Y-112750000D03*
D15*
X146650000Y-113650000D03*
D16*
X147550000Y-110850000D03*
D17*
X147550000Y-111750000D03*
X147550000Y-112750000D03*
D18*
X147550000Y-113650000D03*
D16*
X148550000Y-110850000D03*
D17*
X148550000Y-111750000D03*
X148550000Y-112750000D03*
D18*
X148550000Y-113650000D03*
D19*
X149450000Y-110850000D03*
D20*
X149450000Y-111750000D03*
X149450000Y-112750000D03*
D21*
X149450000Y-113650000D03*
D22*
X145600000Y-110500000D03*
X145600000Y-111000000D03*
X145600000Y-111500000D03*
X145600000Y-112000000D03*
X145600000Y-112500000D03*
X145600000Y-113000000D03*
X145600000Y-113500000D03*
X145600000Y-114000000D03*
D23*
X146300000Y-114700000D03*
X146800000Y-114700000D03*
X147300000Y-114700000D03*
X147800000Y-114700000D03*
X148300000Y-114700000D03*
X148800000Y-114700000D03*
X149300000Y-114700000D03*
X149800000Y-114700000D03*
D22*
X150500000Y-114000000D03*
X150500000Y-113500000D03*
X150500000Y-113000000D03*
X150500000Y-112500000D03*
X150500000Y-112000000D03*
X150500000Y-111500000D03*
X150500000Y-111000000D03*
X150500000Y-110500000D03*
D23*
X149800000Y-109800000D03*
X149300000Y-109800000D03*
X148800000Y-109800000D03*
X148300000Y-109800000D03*
X147800000Y-109800000D03*
X147300000Y-109800000D03*
X146800000Y-109800000D03*
X146300000Y-109800000D03*
%TD*%
D12*
%TO.C,C315*%
X138000000Y-111567500D03*
X138000000Y-110432500D03*
%TD*%
D24*
%TO.C,C309*%
X138932500Y-119500000D03*
X140067500Y-119500000D03*
%TD*%
%TO.C,C310*%
X145432500Y-119000000D03*
X146567500Y-119000000D03*
%TD*%
D10*
%TO.C,C316*%
X159500000Y-108932500D03*
X159500000Y-110067500D03*
%TD*%
D24*
%TO.C,C314*%
X145432500Y-123000000D03*
X146567500Y-123000000D03*
%TD*%
%TO.C,C313*%
X138932500Y-116000000D03*
X140067500Y-116000000D03*
%TD*%
D10*
%TO.C,C307*%
X134500000Y-115932500D03*
X134500000Y-117067500D03*
%TD*%
D12*
%TO.C,C308*%
X128000000Y-117067500D03*
X128000000Y-115932500D03*
%TD*%
M02*
