%TF.GenerationSoftware,KiCad,Pcbnew,8.0.1*%
%TF.CreationDate,2024-07-06T23:02:20-04:00*%
%TF.ProjectId,ST25R3911B,53543235-5233-4393-9131-422e6b696361,rev?*%
%TF.SameCoordinates,Original*%
%TF.FileFunction,Legend,Top*%
%TF.FilePolarity,Positive*%
%FSLAX46Y46*%
G04 Gerber Fmt 4.6, Leading zero omitted, Abs format (unit mm)*
G04 Created by KiCad (PCBNEW 8.0.1) date 2024-07-06 23:02:20*
%MOMM*%
%LPD*%
G01*
G04 APERTURE LIST*
%ADD10C,0.150000*%
%ADD11C,0.120000*%
%ADD12C,0.152400*%
%ADD13C,0.508000*%
G04 APERTURE END LIST*
D10*
X157019580Y-110619047D02*
X157067200Y-110666666D01*
X157067200Y-110666666D02*
X157114819Y-110809523D01*
X157114819Y-110809523D02*
X157114819Y-110904761D01*
X157114819Y-110904761D02*
X157067200Y-111047618D01*
X157067200Y-111047618D02*
X156971961Y-111142856D01*
X156971961Y-111142856D02*
X156876723Y-111190475D01*
X156876723Y-111190475D02*
X156686247Y-111238094D01*
X156686247Y-111238094D02*
X156543390Y-111238094D01*
X156543390Y-111238094D02*
X156352914Y-111190475D01*
X156352914Y-111190475D02*
X156257676Y-111142856D01*
X156257676Y-111142856D02*
X156162438Y-111047618D01*
X156162438Y-111047618D02*
X156114819Y-110904761D01*
X156114819Y-110904761D02*
X156114819Y-110809523D01*
X156114819Y-110809523D02*
X156162438Y-110666666D01*
X156162438Y-110666666D02*
X156210057Y-110619047D01*
X156114819Y-110285713D02*
X156114819Y-109666666D01*
X156114819Y-109666666D02*
X156495771Y-109999999D01*
X156495771Y-109999999D02*
X156495771Y-109857142D01*
X156495771Y-109857142D02*
X156543390Y-109761904D01*
X156543390Y-109761904D02*
X156591009Y-109714285D01*
X156591009Y-109714285D02*
X156686247Y-109666666D01*
X156686247Y-109666666D02*
X156924342Y-109666666D01*
X156924342Y-109666666D02*
X157019580Y-109714285D01*
X157019580Y-109714285D02*
X157067200Y-109761904D01*
X157067200Y-109761904D02*
X157114819Y-109857142D01*
X157114819Y-109857142D02*
X157114819Y-110142856D01*
X157114819Y-110142856D02*
X157067200Y-110238094D01*
X157067200Y-110238094D02*
X157019580Y-110285713D01*
X157114819Y-108714285D02*
X157114819Y-109285713D01*
X157114819Y-108999999D02*
X156114819Y-108999999D01*
X156114819Y-108999999D02*
X156257676Y-109095237D01*
X156257676Y-109095237D02*
X156352914Y-109190475D01*
X156352914Y-109190475D02*
X156400533Y-109285713D01*
X156210057Y-108333332D02*
X156162438Y-108285713D01*
X156162438Y-108285713D02*
X156114819Y-108190475D01*
X156114819Y-108190475D02*
X156114819Y-107952380D01*
X156114819Y-107952380D02*
X156162438Y-107857142D01*
X156162438Y-107857142D02*
X156210057Y-107809523D01*
X156210057Y-107809523D02*
X156305295Y-107761904D01*
X156305295Y-107761904D02*
X156400533Y-107761904D01*
X156400533Y-107761904D02*
X156543390Y-107809523D01*
X156543390Y-107809523D02*
X157114819Y-108380951D01*
X157114819Y-108380951D02*
X157114819Y-107761904D01*
X132045180Y-115738095D02*
X131235657Y-115738095D01*
X131235657Y-115738095D02*
X131140419Y-115785714D01*
X131140419Y-115785714D02*
X131092800Y-115833333D01*
X131092800Y-115833333D02*
X131045180Y-115928571D01*
X131045180Y-115928571D02*
X131045180Y-116119047D01*
X131045180Y-116119047D02*
X131092800Y-116214285D01*
X131092800Y-116214285D02*
X131140419Y-116261904D01*
X131140419Y-116261904D02*
X131235657Y-116309523D01*
X131235657Y-116309523D02*
X132045180Y-116309523D01*
X131949942Y-116738095D02*
X131997561Y-116785714D01*
X131997561Y-116785714D02*
X132045180Y-116880952D01*
X132045180Y-116880952D02*
X132045180Y-117119047D01*
X132045180Y-117119047D02*
X131997561Y-117214285D01*
X131997561Y-117214285D02*
X131949942Y-117261904D01*
X131949942Y-117261904D02*
X131854704Y-117309523D01*
X131854704Y-117309523D02*
X131759466Y-117309523D01*
X131759466Y-117309523D02*
X131616609Y-117261904D01*
X131616609Y-117261904D02*
X131045180Y-116690476D01*
X131045180Y-116690476D02*
X131045180Y-117309523D01*
X141199580Y-112119047D02*
X141247200Y-112166666D01*
X141247200Y-112166666D02*
X141294819Y-112309523D01*
X141294819Y-112309523D02*
X141294819Y-112404761D01*
X141294819Y-112404761D02*
X141247200Y-112547618D01*
X141247200Y-112547618D02*
X141151961Y-112642856D01*
X141151961Y-112642856D02*
X141056723Y-112690475D01*
X141056723Y-112690475D02*
X140866247Y-112738094D01*
X140866247Y-112738094D02*
X140723390Y-112738094D01*
X140723390Y-112738094D02*
X140532914Y-112690475D01*
X140532914Y-112690475D02*
X140437676Y-112642856D01*
X140437676Y-112642856D02*
X140342438Y-112547618D01*
X140342438Y-112547618D02*
X140294819Y-112404761D01*
X140294819Y-112404761D02*
X140294819Y-112309523D01*
X140294819Y-112309523D02*
X140342438Y-112166666D01*
X140342438Y-112166666D02*
X140390057Y-112119047D01*
X140294819Y-111785713D02*
X140294819Y-111166666D01*
X140294819Y-111166666D02*
X140675771Y-111499999D01*
X140675771Y-111499999D02*
X140675771Y-111357142D01*
X140675771Y-111357142D02*
X140723390Y-111261904D01*
X140723390Y-111261904D02*
X140771009Y-111214285D01*
X140771009Y-111214285D02*
X140866247Y-111166666D01*
X140866247Y-111166666D02*
X141104342Y-111166666D01*
X141104342Y-111166666D02*
X141199580Y-111214285D01*
X141199580Y-111214285D02*
X141247200Y-111261904D01*
X141247200Y-111261904D02*
X141294819Y-111357142D01*
X141294819Y-111357142D02*
X141294819Y-111642856D01*
X141294819Y-111642856D02*
X141247200Y-111738094D01*
X141247200Y-111738094D02*
X141199580Y-111785713D01*
X141294819Y-110214285D02*
X141294819Y-110785713D01*
X141294819Y-110499999D02*
X140294819Y-110499999D01*
X140294819Y-110499999D02*
X140437676Y-110595237D01*
X140437676Y-110595237D02*
X140532914Y-110690475D01*
X140532914Y-110690475D02*
X140580533Y-110785713D01*
X141294819Y-109261904D02*
X141294819Y-109833332D01*
X141294819Y-109547618D02*
X140294819Y-109547618D01*
X140294819Y-109547618D02*
X140437676Y-109642856D01*
X140437676Y-109642856D02*
X140532914Y-109738094D01*
X140532914Y-109738094D02*
X140580533Y-109833332D01*
X147288095Y-107904819D02*
X147288095Y-108714342D01*
X147288095Y-108714342D02*
X147335714Y-108809580D01*
X147335714Y-108809580D02*
X147383333Y-108857200D01*
X147383333Y-108857200D02*
X147478571Y-108904819D01*
X147478571Y-108904819D02*
X147669047Y-108904819D01*
X147669047Y-108904819D02*
X147764285Y-108857200D01*
X147764285Y-108857200D02*
X147811904Y-108809580D01*
X147811904Y-108809580D02*
X147859523Y-108714342D01*
X147859523Y-108714342D02*
X147859523Y-107904819D01*
X148859523Y-108904819D02*
X148288095Y-108904819D01*
X148573809Y-108904819D02*
X148573809Y-107904819D01*
X148573809Y-107904819D02*
X148478571Y-108047676D01*
X148478571Y-108047676D02*
X148383333Y-108142914D01*
X148383333Y-108142914D02*
X148288095Y-108190533D01*
X137199580Y-112119047D02*
X137247200Y-112166666D01*
X137247200Y-112166666D02*
X137294819Y-112309523D01*
X137294819Y-112309523D02*
X137294819Y-112404761D01*
X137294819Y-112404761D02*
X137247200Y-112547618D01*
X137247200Y-112547618D02*
X137151961Y-112642856D01*
X137151961Y-112642856D02*
X137056723Y-112690475D01*
X137056723Y-112690475D02*
X136866247Y-112738094D01*
X136866247Y-112738094D02*
X136723390Y-112738094D01*
X136723390Y-112738094D02*
X136532914Y-112690475D01*
X136532914Y-112690475D02*
X136437676Y-112642856D01*
X136437676Y-112642856D02*
X136342438Y-112547618D01*
X136342438Y-112547618D02*
X136294819Y-112404761D01*
X136294819Y-112404761D02*
X136294819Y-112309523D01*
X136294819Y-112309523D02*
X136342438Y-112166666D01*
X136342438Y-112166666D02*
X136390057Y-112119047D01*
X136294819Y-111785713D02*
X136294819Y-111166666D01*
X136294819Y-111166666D02*
X136675771Y-111499999D01*
X136675771Y-111499999D02*
X136675771Y-111357142D01*
X136675771Y-111357142D02*
X136723390Y-111261904D01*
X136723390Y-111261904D02*
X136771009Y-111214285D01*
X136771009Y-111214285D02*
X136866247Y-111166666D01*
X136866247Y-111166666D02*
X137104342Y-111166666D01*
X137104342Y-111166666D02*
X137199580Y-111214285D01*
X137199580Y-111214285D02*
X137247200Y-111261904D01*
X137247200Y-111261904D02*
X137294819Y-111357142D01*
X137294819Y-111357142D02*
X137294819Y-111642856D01*
X137294819Y-111642856D02*
X137247200Y-111738094D01*
X137247200Y-111738094D02*
X137199580Y-111785713D01*
X137294819Y-110214285D02*
X137294819Y-110785713D01*
X137294819Y-110499999D02*
X136294819Y-110499999D01*
X136294819Y-110499999D02*
X136437676Y-110595237D01*
X136437676Y-110595237D02*
X136532914Y-110690475D01*
X136532914Y-110690475D02*
X136580533Y-110785713D01*
X136294819Y-109309523D02*
X136294819Y-109785713D01*
X136294819Y-109785713D02*
X136771009Y-109833332D01*
X136771009Y-109833332D02*
X136723390Y-109785713D01*
X136723390Y-109785713D02*
X136675771Y-109690475D01*
X136675771Y-109690475D02*
X136675771Y-109452380D01*
X136675771Y-109452380D02*
X136723390Y-109357142D01*
X136723390Y-109357142D02*
X136771009Y-109309523D01*
X136771009Y-109309523D02*
X136866247Y-109261904D01*
X136866247Y-109261904D02*
X137104342Y-109261904D01*
X137104342Y-109261904D02*
X137199580Y-109309523D01*
X137199580Y-109309523D02*
X137247200Y-109357142D01*
X137247200Y-109357142D02*
X137294819Y-109452380D01*
X137294819Y-109452380D02*
X137294819Y-109690475D01*
X137294819Y-109690475D02*
X137247200Y-109785713D01*
X137247200Y-109785713D02*
X137199580Y-109833332D01*
X138380952Y-118699580D02*
X138333333Y-118747200D01*
X138333333Y-118747200D02*
X138190476Y-118794819D01*
X138190476Y-118794819D02*
X138095238Y-118794819D01*
X138095238Y-118794819D02*
X137952381Y-118747200D01*
X137952381Y-118747200D02*
X137857143Y-118651961D01*
X137857143Y-118651961D02*
X137809524Y-118556723D01*
X137809524Y-118556723D02*
X137761905Y-118366247D01*
X137761905Y-118366247D02*
X137761905Y-118223390D01*
X137761905Y-118223390D02*
X137809524Y-118032914D01*
X137809524Y-118032914D02*
X137857143Y-117937676D01*
X137857143Y-117937676D02*
X137952381Y-117842438D01*
X137952381Y-117842438D02*
X138095238Y-117794819D01*
X138095238Y-117794819D02*
X138190476Y-117794819D01*
X138190476Y-117794819D02*
X138333333Y-117842438D01*
X138333333Y-117842438D02*
X138380952Y-117890057D01*
X138714286Y-117794819D02*
X139333333Y-117794819D01*
X139333333Y-117794819D02*
X139000000Y-118175771D01*
X139000000Y-118175771D02*
X139142857Y-118175771D01*
X139142857Y-118175771D02*
X139238095Y-118223390D01*
X139238095Y-118223390D02*
X139285714Y-118271009D01*
X139285714Y-118271009D02*
X139333333Y-118366247D01*
X139333333Y-118366247D02*
X139333333Y-118604342D01*
X139333333Y-118604342D02*
X139285714Y-118699580D01*
X139285714Y-118699580D02*
X139238095Y-118747200D01*
X139238095Y-118747200D02*
X139142857Y-118794819D01*
X139142857Y-118794819D02*
X138857143Y-118794819D01*
X138857143Y-118794819D02*
X138761905Y-118747200D01*
X138761905Y-118747200D02*
X138714286Y-118699580D01*
X139952381Y-117794819D02*
X140047619Y-117794819D01*
X140047619Y-117794819D02*
X140142857Y-117842438D01*
X140142857Y-117842438D02*
X140190476Y-117890057D01*
X140190476Y-117890057D02*
X140238095Y-117985295D01*
X140238095Y-117985295D02*
X140285714Y-118175771D01*
X140285714Y-118175771D02*
X140285714Y-118413866D01*
X140285714Y-118413866D02*
X140238095Y-118604342D01*
X140238095Y-118604342D02*
X140190476Y-118699580D01*
X140190476Y-118699580D02*
X140142857Y-118747200D01*
X140142857Y-118747200D02*
X140047619Y-118794819D01*
X140047619Y-118794819D02*
X139952381Y-118794819D01*
X139952381Y-118794819D02*
X139857143Y-118747200D01*
X139857143Y-118747200D02*
X139809524Y-118699580D01*
X139809524Y-118699580D02*
X139761905Y-118604342D01*
X139761905Y-118604342D02*
X139714286Y-118413866D01*
X139714286Y-118413866D02*
X139714286Y-118175771D01*
X139714286Y-118175771D02*
X139761905Y-117985295D01*
X139761905Y-117985295D02*
X139809524Y-117890057D01*
X139809524Y-117890057D02*
X139857143Y-117842438D01*
X139857143Y-117842438D02*
X139952381Y-117794819D01*
X140761905Y-118794819D02*
X140952381Y-118794819D01*
X140952381Y-118794819D02*
X141047619Y-118747200D01*
X141047619Y-118747200D02*
X141095238Y-118699580D01*
X141095238Y-118699580D02*
X141190476Y-118556723D01*
X141190476Y-118556723D02*
X141238095Y-118366247D01*
X141238095Y-118366247D02*
X141238095Y-117985295D01*
X141238095Y-117985295D02*
X141190476Y-117890057D01*
X141190476Y-117890057D02*
X141142857Y-117842438D01*
X141142857Y-117842438D02*
X141047619Y-117794819D01*
X141047619Y-117794819D02*
X140857143Y-117794819D01*
X140857143Y-117794819D02*
X140761905Y-117842438D01*
X140761905Y-117842438D02*
X140714286Y-117890057D01*
X140714286Y-117890057D02*
X140666667Y-117985295D01*
X140666667Y-117985295D02*
X140666667Y-118223390D01*
X140666667Y-118223390D02*
X140714286Y-118318628D01*
X140714286Y-118318628D02*
X140761905Y-118366247D01*
X140761905Y-118366247D02*
X140857143Y-118413866D01*
X140857143Y-118413866D02*
X141047619Y-118413866D01*
X141047619Y-118413866D02*
X141142857Y-118366247D01*
X141142857Y-118366247D02*
X141190476Y-118318628D01*
X141190476Y-118318628D02*
X141238095Y-118223390D01*
X144880952Y-118199580D02*
X144833333Y-118247200D01*
X144833333Y-118247200D02*
X144690476Y-118294819D01*
X144690476Y-118294819D02*
X144595238Y-118294819D01*
X144595238Y-118294819D02*
X144452381Y-118247200D01*
X144452381Y-118247200D02*
X144357143Y-118151961D01*
X144357143Y-118151961D02*
X144309524Y-118056723D01*
X144309524Y-118056723D02*
X144261905Y-117866247D01*
X144261905Y-117866247D02*
X144261905Y-117723390D01*
X144261905Y-117723390D02*
X144309524Y-117532914D01*
X144309524Y-117532914D02*
X144357143Y-117437676D01*
X144357143Y-117437676D02*
X144452381Y-117342438D01*
X144452381Y-117342438D02*
X144595238Y-117294819D01*
X144595238Y-117294819D02*
X144690476Y-117294819D01*
X144690476Y-117294819D02*
X144833333Y-117342438D01*
X144833333Y-117342438D02*
X144880952Y-117390057D01*
X145214286Y-117294819D02*
X145833333Y-117294819D01*
X145833333Y-117294819D02*
X145500000Y-117675771D01*
X145500000Y-117675771D02*
X145642857Y-117675771D01*
X145642857Y-117675771D02*
X145738095Y-117723390D01*
X145738095Y-117723390D02*
X145785714Y-117771009D01*
X145785714Y-117771009D02*
X145833333Y-117866247D01*
X145833333Y-117866247D02*
X145833333Y-118104342D01*
X145833333Y-118104342D02*
X145785714Y-118199580D01*
X145785714Y-118199580D02*
X145738095Y-118247200D01*
X145738095Y-118247200D02*
X145642857Y-118294819D01*
X145642857Y-118294819D02*
X145357143Y-118294819D01*
X145357143Y-118294819D02*
X145261905Y-118247200D01*
X145261905Y-118247200D02*
X145214286Y-118199580D01*
X146785714Y-118294819D02*
X146214286Y-118294819D01*
X146500000Y-118294819D02*
X146500000Y-117294819D01*
X146500000Y-117294819D02*
X146404762Y-117437676D01*
X146404762Y-117437676D02*
X146309524Y-117532914D01*
X146309524Y-117532914D02*
X146214286Y-117580533D01*
X147404762Y-117294819D02*
X147500000Y-117294819D01*
X147500000Y-117294819D02*
X147595238Y-117342438D01*
X147595238Y-117342438D02*
X147642857Y-117390057D01*
X147642857Y-117390057D02*
X147690476Y-117485295D01*
X147690476Y-117485295D02*
X147738095Y-117675771D01*
X147738095Y-117675771D02*
X147738095Y-117913866D01*
X147738095Y-117913866D02*
X147690476Y-118104342D01*
X147690476Y-118104342D02*
X147642857Y-118199580D01*
X147642857Y-118199580D02*
X147595238Y-118247200D01*
X147595238Y-118247200D02*
X147500000Y-118294819D01*
X147500000Y-118294819D02*
X147404762Y-118294819D01*
X147404762Y-118294819D02*
X147309524Y-118247200D01*
X147309524Y-118247200D02*
X147261905Y-118199580D01*
X147261905Y-118199580D02*
X147214286Y-118104342D01*
X147214286Y-118104342D02*
X147166667Y-117913866D01*
X147166667Y-117913866D02*
X147166667Y-117675771D01*
X147166667Y-117675771D02*
X147214286Y-117485295D01*
X147214286Y-117485295D02*
X147261905Y-117390057D01*
X147261905Y-117390057D02*
X147309524Y-117342438D01*
X147309524Y-117342438D02*
X147404762Y-117294819D01*
X161019580Y-110619047D02*
X161067200Y-110666666D01*
X161067200Y-110666666D02*
X161114819Y-110809523D01*
X161114819Y-110809523D02*
X161114819Y-110904761D01*
X161114819Y-110904761D02*
X161067200Y-111047618D01*
X161067200Y-111047618D02*
X160971961Y-111142856D01*
X160971961Y-111142856D02*
X160876723Y-111190475D01*
X160876723Y-111190475D02*
X160686247Y-111238094D01*
X160686247Y-111238094D02*
X160543390Y-111238094D01*
X160543390Y-111238094D02*
X160352914Y-111190475D01*
X160352914Y-111190475D02*
X160257676Y-111142856D01*
X160257676Y-111142856D02*
X160162438Y-111047618D01*
X160162438Y-111047618D02*
X160114819Y-110904761D01*
X160114819Y-110904761D02*
X160114819Y-110809523D01*
X160114819Y-110809523D02*
X160162438Y-110666666D01*
X160162438Y-110666666D02*
X160210057Y-110619047D01*
X160114819Y-110285713D02*
X160114819Y-109666666D01*
X160114819Y-109666666D02*
X160495771Y-109999999D01*
X160495771Y-109999999D02*
X160495771Y-109857142D01*
X160495771Y-109857142D02*
X160543390Y-109761904D01*
X160543390Y-109761904D02*
X160591009Y-109714285D01*
X160591009Y-109714285D02*
X160686247Y-109666666D01*
X160686247Y-109666666D02*
X160924342Y-109666666D01*
X160924342Y-109666666D02*
X161019580Y-109714285D01*
X161019580Y-109714285D02*
X161067200Y-109761904D01*
X161067200Y-109761904D02*
X161114819Y-109857142D01*
X161114819Y-109857142D02*
X161114819Y-110142856D01*
X161114819Y-110142856D02*
X161067200Y-110238094D01*
X161067200Y-110238094D02*
X161019580Y-110285713D01*
X161114819Y-108714285D02*
X161114819Y-109285713D01*
X161114819Y-108999999D02*
X160114819Y-108999999D01*
X160114819Y-108999999D02*
X160257676Y-109095237D01*
X160257676Y-109095237D02*
X160352914Y-109190475D01*
X160352914Y-109190475D02*
X160400533Y-109285713D01*
X160114819Y-107857142D02*
X160114819Y-108047618D01*
X160114819Y-108047618D02*
X160162438Y-108142856D01*
X160162438Y-108142856D02*
X160210057Y-108190475D01*
X160210057Y-108190475D02*
X160352914Y-108285713D01*
X160352914Y-108285713D02*
X160543390Y-108333332D01*
X160543390Y-108333332D02*
X160924342Y-108333332D01*
X160924342Y-108333332D02*
X161019580Y-108285713D01*
X161019580Y-108285713D02*
X161067200Y-108238094D01*
X161067200Y-108238094D02*
X161114819Y-108142856D01*
X161114819Y-108142856D02*
X161114819Y-107952380D01*
X161114819Y-107952380D02*
X161067200Y-107857142D01*
X161067200Y-107857142D02*
X161019580Y-107809523D01*
X161019580Y-107809523D02*
X160924342Y-107761904D01*
X160924342Y-107761904D02*
X160686247Y-107761904D01*
X160686247Y-107761904D02*
X160591009Y-107809523D01*
X160591009Y-107809523D02*
X160543390Y-107857142D01*
X160543390Y-107857142D02*
X160495771Y-107952380D01*
X160495771Y-107952380D02*
X160495771Y-108142856D01*
X160495771Y-108142856D02*
X160543390Y-108238094D01*
X160543390Y-108238094D02*
X160591009Y-108285713D01*
X160591009Y-108285713D02*
X160686247Y-108333332D01*
X144880952Y-122199580D02*
X144833333Y-122247200D01*
X144833333Y-122247200D02*
X144690476Y-122294819D01*
X144690476Y-122294819D02*
X144595238Y-122294819D01*
X144595238Y-122294819D02*
X144452381Y-122247200D01*
X144452381Y-122247200D02*
X144357143Y-122151961D01*
X144357143Y-122151961D02*
X144309524Y-122056723D01*
X144309524Y-122056723D02*
X144261905Y-121866247D01*
X144261905Y-121866247D02*
X144261905Y-121723390D01*
X144261905Y-121723390D02*
X144309524Y-121532914D01*
X144309524Y-121532914D02*
X144357143Y-121437676D01*
X144357143Y-121437676D02*
X144452381Y-121342438D01*
X144452381Y-121342438D02*
X144595238Y-121294819D01*
X144595238Y-121294819D02*
X144690476Y-121294819D01*
X144690476Y-121294819D02*
X144833333Y-121342438D01*
X144833333Y-121342438D02*
X144880952Y-121390057D01*
X145214286Y-121294819D02*
X145833333Y-121294819D01*
X145833333Y-121294819D02*
X145500000Y-121675771D01*
X145500000Y-121675771D02*
X145642857Y-121675771D01*
X145642857Y-121675771D02*
X145738095Y-121723390D01*
X145738095Y-121723390D02*
X145785714Y-121771009D01*
X145785714Y-121771009D02*
X145833333Y-121866247D01*
X145833333Y-121866247D02*
X145833333Y-122104342D01*
X145833333Y-122104342D02*
X145785714Y-122199580D01*
X145785714Y-122199580D02*
X145738095Y-122247200D01*
X145738095Y-122247200D02*
X145642857Y-122294819D01*
X145642857Y-122294819D02*
X145357143Y-122294819D01*
X145357143Y-122294819D02*
X145261905Y-122247200D01*
X145261905Y-122247200D02*
X145214286Y-122199580D01*
X146785714Y-122294819D02*
X146214286Y-122294819D01*
X146500000Y-122294819D02*
X146500000Y-121294819D01*
X146500000Y-121294819D02*
X146404762Y-121437676D01*
X146404762Y-121437676D02*
X146309524Y-121532914D01*
X146309524Y-121532914D02*
X146214286Y-121580533D01*
X147642857Y-121628152D02*
X147642857Y-122294819D01*
X147404762Y-121247200D02*
X147166667Y-121961485D01*
X147166667Y-121961485D02*
X147785714Y-121961485D01*
X138380952Y-115199580D02*
X138333333Y-115247200D01*
X138333333Y-115247200D02*
X138190476Y-115294819D01*
X138190476Y-115294819D02*
X138095238Y-115294819D01*
X138095238Y-115294819D02*
X137952381Y-115247200D01*
X137952381Y-115247200D02*
X137857143Y-115151961D01*
X137857143Y-115151961D02*
X137809524Y-115056723D01*
X137809524Y-115056723D02*
X137761905Y-114866247D01*
X137761905Y-114866247D02*
X137761905Y-114723390D01*
X137761905Y-114723390D02*
X137809524Y-114532914D01*
X137809524Y-114532914D02*
X137857143Y-114437676D01*
X137857143Y-114437676D02*
X137952381Y-114342438D01*
X137952381Y-114342438D02*
X138095238Y-114294819D01*
X138095238Y-114294819D02*
X138190476Y-114294819D01*
X138190476Y-114294819D02*
X138333333Y-114342438D01*
X138333333Y-114342438D02*
X138380952Y-114390057D01*
X138714286Y-114294819D02*
X139333333Y-114294819D01*
X139333333Y-114294819D02*
X139000000Y-114675771D01*
X139000000Y-114675771D02*
X139142857Y-114675771D01*
X139142857Y-114675771D02*
X139238095Y-114723390D01*
X139238095Y-114723390D02*
X139285714Y-114771009D01*
X139285714Y-114771009D02*
X139333333Y-114866247D01*
X139333333Y-114866247D02*
X139333333Y-115104342D01*
X139333333Y-115104342D02*
X139285714Y-115199580D01*
X139285714Y-115199580D02*
X139238095Y-115247200D01*
X139238095Y-115247200D02*
X139142857Y-115294819D01*
X139142857Y-115294819D02*
X138857143Y-115294819D01*
X138857143Y-115294819D02*
X138761905Y-115247200D01*
X138761905Y-115247200D02*
X138714286Y-115199580D01*
X140285714Y-115294819D02*
X139714286Y-115294819D01*
X140000000Y-115294819D02*
X140000000Y-114294819D01*
X140000000Y-114294819D02*
X139904762Y-114437676D01*
X139904762Y-114437676D02*
X139809524Y-114532914D01*
X139809524Y-114532914D02*
X139714286Y-114580533D01*
X140619048Y-114294819D02*
X141238095Y-114294819D01*
X141238095Y-114294819D02*
X140904762Y-114675771D01*
X140904762Y-114675771D02*
X141047619Y-114675771D01*
X141047619Y-114675771D02*
X141142857Y-114723390D01*
X141142857Y-114723390D02*
X141190476Y-114771009D01*
X141190476Y-114771009D02*
X141238095Y-114866247D01*
X141238095Y-114866247D02*
X141238095Y-115104342D01*
X141238095Y-115104342D02*
X141190476Y-115199580D01*
X141190476Y-115199580D02*
X141142857Y-115247200D01*
X141142857Y-115247200D02*
X141047619Y-115294819D01*
X141047619Y-115294819D02*
X140761905Y-115294819D01*
X140761905Y-115294819D02*
X140666667Y-115247200D01*
X140666667Y-115247200D02*
X140619048Y-115199580D01*
X136019580Y-117619047D02*
X136067200Y-117666666D01*
X136067200Y-117666666D02*
X136114819Y-117809523D01*
X136114819Y-117809523D02*
X136114819Y-117904761D01*
X136114819Y-117904761D02*
X136067200Y-118047618D01*
X136067200Y-118047618D02*
X135971961Y-118142856D01*
X135971961Y-118142856D02*
X135876723Y-118190475D01*
X135876723Y-118190475D02*
X135686247Y-118238094D01*
X135686247Y-118238094D02*
X135543390Y-118238094D01*
X135543390Y-118238094D02*
X135352914Y-118190475D01*
X135352914Y-118190475D02*
X135257676Y-118142856D01*
X135257676Y-118142856D02*
X135162438Y-118047618D01*
X135162438Y-118047618D02*
X135114819Y-117904761D01*
X135114819Y-117904761D02*
X135114819Y-117809523D01*
X135114819Y-117809523D02*
X135162438Y-117666666D01*
X135162438Y-117666666D02*
X135210057Y-117619047D01*
X135114819Y-117285713D02*
X135114819Y-116666666D01*
X135114819Y-116666666D02*
X135495771Y-116999999D01*
X135495771Y-116999999D02*
X135495771Y-116857142D01*
X135495771Y-116857142D02*
X135543390Y-116761904D01*
X135543390Y-116761904D02*
X135591009Y-116714285D01*
X135591009Y-116714285D02*
X135686247Y-116666666D01*
X135686247Y-116666666D02*
X135924342Y-116666666D01*
X135924342Y-116666666D02*
X136019580Y-116714285D01*
X136019580Y-116714285D02*
X136067200Y-116761904D01*
X136067200Y-116761904D02*
X136114819Y-116857142D01*
X136114819Y-116857142D02*
X136114819Y-117142856D01*
X136114819Y-117142856D02*
X136067200Y-117238094D01*
X136067200Y-117238094D02*
X136019580Y-117285713D01*
X135114819Y-116047618D02*
X135114819Y-115952380D01*
X135114819Y-115952380D02*
X135162438Y-115857142D01*
X135162438Y-115857142D02*
X135210057Y-115809523D01*
X135210057Y-115809523D02*
X135305295Y-115761904D01*
X135305295Y-115761904D02*
X135495771Y-115714285D01*
X135495771Y-115714285D02*
X135733866Y-115714285D01*
X135733866Y-115714285D02*
X135924342Y-115761904D01*
X135924342Y-115761904D02*
X136019580Y-115809523D01*
X136019580Y-115809523D02*
X136067200Y-115857142D01*
X136067200Y-115857142D02*
X136114819Y-115952380D01*
X136114819Y-115952380D02*
X136114819Y-116047618D01*
X136114819Y-116047618D02*
X136067200Y-116142856D01*
X136067200Y-116142856D02*
X136019580Y-116190475D01*
X136019580Y-116190475D02*
X135924342Y-116238094D01*
X135924342Y-116238094D02*
X135733866Y-116285713D01*
X135733866Y-116285713D02*
X135495771Y-116285713D01*
X135495771Y-116285713D02*
X135305295Y-116238094D01*
X135305295Y-116238094D02*
X135210057Y-116190475D01*
X135210057Y-116190475D02*
X135162438Y-116142856D01*
X135162438Y-116142856D02*
X135114819Y-116047618D01*
X135114819Y-115380951D02*
X135114819Y-114714285D01*
X135114819Y-114714285D02*
X136114819Y-115142856D01*
X145896666Y-102454819D02*
X145896666Y-103169104D01*
X145896666Y-103169104D02*
X145849047Y-103311961D01*
X145849047Y-103311961D02*
X145753809Y-103407200D01*
X145753809Y-103407200D02*
X145610952Y-103454819D01*
X145610952Y-103454819D02*
X145515714Y-103454819D01*
X146896666Y-103454819D02*
X146325238Y-103454819D01*
X146610952Y-103454819D02*
X146610952Y-102454819D01*
X146610952Y-102454819D02*
X146515714Y-102597676D01*
X146515714Y-102597676D02*
X146420476Y-102692914D01*
X146420476Y-102692914D02*
X146325238Y-102740533D01*
X127199580Y-117619047D02*
X127247200Y-117666666D01*
X127247200Y-117666666D02*
X127294819Y-117809523D01*
X127294819Y-117809523D02*
X127294819Y-117904761D01*
X127294819Y-117904761D02*
X127247200Y-118047618D01*
X127247200Y-118047618D02*
X127151961Y-118142856D01*
X127151961Y-118142856D02*
X127056723Y-118190475D01*
X127056723Y-118190475D02*
X126866247Y-118238094D01*
X126866247Y-118238094D02*
X126723390Y-118238094D01*
X126723390Y-118238094D02*
X126532914Y-118190475D01*
X126532914Y-118190475D02*
X126437676Y-118142856D01*
X126437676Y-118142856D02*
X126342438Y-118047618D01*
X126342438Y-118047618D02*
X126294819Y-117904761D01*
X126294819Y-117904761D02*
X126294819Y-117809523D01*
X126294819Y-117809523D02*
X126342438Y-117666666D01*
X126342438Y-117666666D02*
X126390057Y-117619047D01*
X126294819Y-117285713D02*
X126294819Y-116666666D01*
X126294819Y-116666666D02*
X126675771Y-116999999D01*
X126675771Y-116999999D02*
X126675771Y-116857142D01*
X126675771Y-116857142D02*
X126723390Y-116761904D01*
X126723390Y-116761904D02*
X126771009Y-116714285D01*
X126771009Y-116714285D02*
X126866247Y-116666666D01*
X126866247Y-116666666D02*
X127104342Y-116666666D01*
X127104342Y-116666666D02*
X127199580Y-116714285D01*
X127199580Y-116714285D02*
X127247200Y-116761904D01*
X127247200Y-116761904D02*
X127294819Y-116857142D01*
X127294819Y-116857142D02*
X127294819Y-117142856D01*
X127294819Y-117142856D02*
X127247200Y-117238094D01*
X127247200Y-117238094D02*
X127199580Y-117285713D01*
X126294819Y-116047618D02*
X126294819Y-115952380D01*
X126294819Y-115952380D02*
X126342438Y-115857142D01*
X126342438Y-115857142D02*
X126390057Y-115809523D01*
X126390057Y-115809523D02*
X126485295Y-115761904D01*
X126485295Y-115761904D02*
X126675771Y-115714285D01*
X126675771Y-115714285D02*
X126913866Y-115714285D01*
X126913866Y-115714285D02*
X127104342Y-115761904D01*
X127104342Y-115761904D02*
X127199580Y-115809523D01*
X127199580Y-115809523D02*
X127247200Y-115857142D01*
X127247200Y-115857142D02*
X127294819Y-115952380D01*
X127294819Y-115952380D02*
X127294819Y-116047618D01*
X127294819Y-116047618D02*
X127247200Y-116142856D01*
X127247200Y-116142856D02*
X127199580Y-116190475D01*
X127199580Y-116190475D02*
X127104342Y-116238094D01*
X127104342Y-116238094D02*
X126913866Y-116285713D01*
X126913866Y-116285713D02*
X126675771Y-116285713D01*
X126675771Y-116285713D02*
X126485295Y-116238094D01*
X126485295Y-116238094D02*
X126390057Y-116190475D01*
X126390057Y-116190475D02*
X126342438Y-116142856D01*
X126342438Y-116142856D02*
X126294819Y-116047618D01*
X126723390Y-115142856D02*
X126675771Y-115238094D01*
X126675771Y-115238094D02*
X126628152Y-115285713D01*
X126628152Y-115285713D02*
X126532914Y-115333332D01*
X126532914Y-115333332D02*
X126485295Y-115333332D01*
X126485295Y-115333332D02*
X126390057Y-115285713D01*
X126390057Y-115285713D02*
X126342438Y-115238094D01*
X126342438Y-115238094D02*
X126294819Y-115142856D01*
X126294819Y-115142856D02*
X126294819Y-114952380D01*
X126294819Y-114952380D02*
X126342438Y-114857142D01*
X126342438Y-114857142D02*
X126390057Y-114809523D01*
X126390057Y-114809523D02*
X126485295Y-114761904D01*
X126485295Y-114761904D02*
X126532914Y-114761904D01*
X126532914Y-114761904D02*
X126628152Y-114809523D01*
X126628152Y-114809523D02*
X126675771Y-114857142D01*
X126675771Y-114857142D02*
X126723390Y-114952380D01*
X126723390Y-114952380D02*
X126723390Y-115142856D01*
X126723390Y-115142856D02*
X126771009Y-115238094D01*
X126771009Y-115238094D02*
X126818628Y-115285713D01*
X126818628Y-115285713D02*
X126913866Y-115333332D01*
X126913866Y-115333332D02*
X127104342Y-115333332D01*
X127104342Y-115333332D02*
X127199580Y-115285713D01*
X127199580Y-115285713D02*
X127247200Y-115238094D01*
X127247200Y-115238094D02*
X127294819Y-115142856D01*
X127294819Y-115142856D02*
X127294819Y-114952380D01*
X127294819Y-114952380D02*
X127247200Y-114857142D01*
X127247200Y-114857142D02*
X127199580Y-114809523D01*
X127199580Y-114809523D02*
X127104342Y-114761904D01*
X127104342Y-114761904D02*
X126913866Y-114761904D01*
X126913866Y-114761904D02*
X126818628Y-114809523D01*
X126818628Y-114809523D02*
X126771009Y-114857142D01*
X126771009Y-114857142D02*
X126723390Y-114952380D01*
D11*
%TO.C,C312*%
X155140000Y-109384165D02*
X155140000Y-109615835D01*
X155860000Y-109384165D02*
X155860000Y-109615835D01*
D12*
%TO.C,U2*%
X132302000Y-114436400D02*
G75*
G02*
X132048000Y-114436400I-127000J0D01*
G01*
X132048000Y-114436400D02*
G75*
G02*
X132302000Y-114436400I127000J0D01*
G01*
D11*
%TO.C,C311*%
X141640000Y-111115835D02*
X141640000Y-110884165D01*
X142360000Y-111115835D02*
X142360000Y-110884165D01*
%TO.C,U1*%
X145440000Y-110115000D02*
X145440000Y-109880000D01*
X145440000Y-114860000D02*
X145440000Y-114385000D01*
X145915000Y-109640000D02*
X145740000Y-109640000D01*
X145915000Y-114860000D02*
X145440000Y-114860000D01*
X150185000Y-109640000D02*
X150660000Y-109640000D01*
X150185000Y-114860000D02*
X150660000Y-114860000D01*
X150660000Y-109640000D02*
X150660000Y-110115000D01*
X150660000Y-114860000D02*
X150660000Y-114385000D01*
X145440000Y-109640000D02*
X145200000Y-109310000D01*
X145680000Y-109310000D01*
X145440000Y-109640000D01*
G36*
X145440000Y-109640000D02*
G01*
X145200000Y-109310000D01*
X145680000Y-109310000D01*
X145440000Y-109640000D01*
G37*
%TO.C,C315*%
X137640000Y-111115835D02*
X137640000Y-110884165D01*
X138360000Y-111115835D02*
X138360000Y-110884165D01*
%TO.C,C309*%
X139384165Y-119140000D02*
X139615835Y-119140000D01*
X139384165Y-119860000D02*
X139615835Y-119860000D01*
%TO.C,C310*%
X145884165Y-118640000D02*
X146115835Y-118640000D01*
X145884165Y-119360000D02*
X146115835Y-119360000D01*
%TO.C,C316*%
X159140000Y-109384165D02*
X159140000Y-109615835D01*
X159860000Y-109384165D02*
X159860000Y-109615835D01*
%TO.C,C314*%
X145884165Y-122640000D02*
X146115835Y-122640000D01*
X145884165Y-123360000D02*
X146115835Y-123360000D01*
%TO.C,C313*%
X139384165Y-115640000D02*
X139615835Y-115640000D01*
X139384165Y-116360000D02*
X139615835Y-116360000D01*
%TO.C,C307*%
X134140000Y-116384165D02*
X134140000Y-116615835D01*
X134860000Y-116384165D02*
X134860000Y-116615835D01*
D12*
%TO.C,J1*%
X135943000Y-101603000D02*
X135943000Y-104397000D01*
X135943000Y-104397000D02*
X156517000Y-104397000D01*
X156517000Y-101603000D02*
X135943000Y-101603000D01*
X156517000Y-104397000D02*
X156517000Y-101603000D01*
D13*
X137721000Y-104905000D02*
G75*
G02*
X136959000Y-104905000I-381000J0D01*
G01*
X136959000Y-104905000D02*
G75*
G02*
X137721000Y-104905000I381000J0D01*
G01*
D11*
%TO.C,C308*%
X127640000Y-116615835D02*
X127640000Y-116384165D01*
X128360000Y-116615835D02*
X128360000Y-116384165D01*
%TD*%
M02*
