%TF.GenerationSoftware,KiCad,Pcbnew,8.0.1*%
%TF.CreationDate,2024-07-06T23:02:20-04:00*%
%TF.ProjectId,ST25R3911B,53543235-5233-4393-9131-422e6b696361,rev?*%
%TF.SameCoordinates,Original*%
%TF.FileFunction,Copper,L1,Top*%
%TF.FilePolarity,Positive*%
%FSLAX46Y46*%
G04 Gerber Fmt 4.6, Leading zero omitted, Abs format (unit mm)*
G04 Created by KiCad (PCBNEW 8.0.1) date 2024-07-06 23:02:20*
%MOMM*%
%LPD*%
G01*
G04 APERTURE LIST*
G04 Aperture macros list*
%AMRoundRect*
0 Rectangle with rounded corners*
0 $1 Rounding radius*
0 $2 $3 $4 $5 $6 $7 $8 $9 X,Y pos of 4 corners*
0 Add a 4 corners polygon primitive as box body*
4,1,4,$2,$3,$4,$5,$6,$7,$8,$9,$2,$3,0*
0 Add four circle primitives for the rounded corners*
1,1,$1+$1,$2,$3*
1,1,$1+$1,$4,$5*
1,1,$1+$1,$6,$7*
1,1,$1+$1,$8,$9*
0 Add four rect primitives between the rounded corners*
20,1,$1+$1,$2,$3,$4,$5,0*
20,1,$1+$1,$4,$5,$6,$7,0*
20,1,$1+$1,$6,$7,$8,$9,0*
20,1,$1+$1,$8,$9,$2,$3,0*%
G04 Aperture macros list end*
%TA.AperFunction,SMDPad,CuDef*%
%ADD10RoundRect,0.155000X-0.155000X0.212500X-0.155000X-0.212500X0.155000X-0.212500X0.155000X0.212500X0*%
%TD*%
%TA.AperFunction,SMDPad,CuDef*%
%ADD11R,0.838200X0.762000*%
%TD*%
%TA.AperFunction,SMDPad,CuDef*%
%ADD12RoundRect,0.155000X0.155000X-0.212500X0.155000X0.212500X-0.155000X0.212500X-0.155000X-0.212500X0*%
%TD*%
%TA.AperFunction,SMDPad,CuDef*%
%ADD13RoundRect,0.062500X-0.337500X-0.062500X0.337500X-0.062500X0.337500X0.062500X-0.337500X0.062500X0*%
%TD*%
%TA.AperFunction,SMDPad,CuDef*%
%ADD14RoundRect,0.062500X-0.062500X-0.337500X0.062500X-0.337500X0.062500X0.337500X-0.062500X0.337500X0*%
%TD*%
%TA.AperFunction,HeatsinkPad*%
%ADD15C,0.500000*%
%TD*%
%TA.AperFunction,HeatsinkPad*%
%ADD16R,3.600000X3.600000*%
%TD*%
%TA.AperFunction,SMDPad,CuDef*%
%ADD17RoundRect,0.155000X-0.212500X-0.155000X0.212500X-0.155000X0.212500X0.155000X-0.212500X0.155000X0*%
%TD*%
%TA.AperFunction,ComponentPad*%
%ADD18C,1.524000*%
%TD*%
%TA.AperFunction,Conductor*%
%ADD19C,0.200000*%
%TD*%
G04 APERTURE END LIST*
D10*
%TO.P,C312,1*%
%TO.N,Net-(U1-AGD)*%
X155500000Y-108932500D03*
%TO.P,C312,2*%
%TO.N,GND*%
X155500000Y-110067500D03*
%TD*%
D11*
%TO.P,U2,1,1*%
%TO.N,Net-(U1-XTO)*%
X132175000Y-115975000D03*
%TO.P,U2,2,GND*%
%TO.N,GND*%
X130825000Y-115975000D03*
%TO.P,U2,3,3*%
%TO.N,Net-(U1-XTI)*%
X130825000Y-117025000D03*
%TO.P,U2,4,GND*%
%TO.N,GND*%
X132175000Y-117025000D03*
%TD*%
D12*
%TO.P,C311,1*%
%TO.N,Net-(U1-VSP_D)*%
X142000000Y-111567500D03*
%TO.P,C311,2*%
%TO.N,GND*%
X142000000Y-110432500D03*
%TD*%
D13*
%TO.P,U1,1,VDD_IO*%
%TO.N,/3V3*%
X145600000Y-110500000D03*
%TO.P,U1,2,CSO*%
%TO.N,unconnected-(U1-CSO-Pad2)*%
X145600000Y-111000000D03*
%TO.P,U1,3,VSP_D*%
%TO.N,Net-(U1-VSP_D)*%
X145600000Y-111500000D03*
%TO.P,U1,4,XTO*%
%TO.N,Net-(U1-XTO)*%
X145600000Y-112000000D03*
%TO.P,U1,5,XTI*%
%TO.N,Net-(U1-XTI)*%
X145600000Y-112500000D03*
%TO.P,U1,6,VSN_D*%
%TO.N,GND*%
X145600000Y-113000000D03*
%TO.P,U1,7,VSP_A*%
%TO.N,Net-(U1-VSP_A)*%
X145600000Y-113500000D03*
%TO.P,U1,8,VDD*%
%TO.N,/3V3*%
X145600000Y-114000000D03*
D14*
%TO.P,U1,9,VSP_RF*%
%TO.N,Net-(U1-VSP_RF)*%
X146300000Y-114700000D03*
%TO.P,U1,10,RFO1*%
%TO.N,/RFO1*%
X146800000Y-114700000D03*
%TO.P,U1,11,RFO2*%
%TO.N,/RFO2*%
X147300000Y-114700000D03*
%TO.P,U1,12,VSN_RF*%
%TO.N,GND*%
X147800000Y-114700000D03*
%TO.P,U1,13,TRIM1_3*%
%TO.N,unconnected-(U1-TRIM1_3-Pad13)*%
X148300000Y-114700000D03*
%TO.P,U1,14,TRIM2_3*%
%TO.N,unconnected-(U1-TRIM2_3-Pad14)*%
X148800000Y-114700000D03*
%TO.P,U1,15,TRIM1_2*%
%TO.N,unconnected-(U1-TRIM1_2-Pad15)*%
X149300000Y-114700000D03*
%TO.P,U1,16,TRIM2_2*%
%TO.N,unconnected-(U1-TRIM2_2-Pad16)*%
X149800000Y-114700000D03*
D13*
%TO.P,U1,17,TRIM1_1*%
%TO.N,unconnected-(U1-TRIM1_1-Pad17)*%
X150500000Y-114000000D03*
%TO.P,U1,18,TRIM2_1*%
%TO.N,unconnected-(U1-TRIM2_1-Pad18)*%
X150500000Y-113500000D03*
%TO.P,U1,19,TRIM1_0*%
%TO.N,unconnected-(U1-TRIM1_0-Pad19)*%
X150500000Y-113000000D03*
%TO.P,U1,20,TRIM2_0*%
%TO.N,unconnected-(U1-TRIM2_0-Pad20)*%
X150500000Y-112500000D03*
%TO.P,U1,21,VSS*%
%TO.N,GND*%
X150500000Y-112000000D03*
%TO.P,U1,22,RFI1*%
%TO.N,unconnected-(U1-RFI1-Pad22)*%
X150500000Y-111500000D03*
%TO.P,U1,23,RFI2*%
%TO.N,unconnected-(U1-RFI2-Pad23)*%
X150500000Y-111000000D03*
%TO.P,U1,24,AGD*%
%TO.N,Net-(U1-AGD)*%
X150500000Y-110500000D03*
D14*
%TO.P,U1,25,CSI*%
%TO.N,unconnected-(U1-CSI-Pad25)*%
X149800000Y-109800000D03*
%TO.P,U1,26,VSN_A*%
%TO.N,GND*%
X149300000Y-109800000D03*
%TO.P,U1,27,IRQ*%
%TO.N,/IRQ*%
X148800000Y-109800000D03*
%TO.P,U1,28,MCU_CLK*%
%TO.N,unconnected-(U1-MCU_CLK-Pad28)*%
X148300000Y-109800000D03*
%TO.P,U1,29,MISO*%
%TO.N,/MISO*%
X147800000Y-109800000D03*
%TO.P,U1,30,MOSI*%
%TO.N,/MOSI*%
X147300000Y-109800000D03*
%TO.P,U1,31,SCLK*%
%TO.N,/SCLK*%
X146800000Y-109800000D03*
%TO.P,U1,32,/SS*%
%TO.N,/SS*%
X146300000Y-109800000D03*
D15*
%TO.P,U1,33,EP*%
%TO.N,unconnected-(U1-EP-Pad33)*%
X147050000Y-111250000D03*
X147050000Y-112250000D03*
X147050000Y-113250000D03*
X148050000Y-111250000D03*
X148050000Y-112250000D03*
D16*
X148050000Y-112250000D03*
D15*
X148050000Y-113250000D03*
X149050000Y-111250000D03*
X149050000Y-112250000D03*
X149050000Y-113250000D03*
%TD*%
D12*
%TO.P,C315,1*%
%TO.N,Net-(U1-VSP_D)*%
X138000000Y-111567500D03*
%TO.P,C315,2*%
%TO.N,GND*%
X138000000Y-110432500D03*
%TD*%
D17*
%TO.P,C309,1*%
%TO.N,Net-(U1-VSP_A)*%
X138932500Y-119500000D03*
%TO.P,C309,2*%
%TO.N,GND*%
X140067500Y-119500000D03*
%TD*%
%TO.P,C310,1*%
%TO.N,Net-(U1-VSP_RF)*%
X145432500Y-119000000D03*
%TO.P,C310,2*%
%TO.N,GND*%
X146567500Y-119000000D03*
%TD*%
D10*
%TO.P,C316,1*%
%TO.N,Net-(U1-AGD)*%
X159500000Y-108932500D03*
%TO.P,C316,2*%
%TO.N,GND*%
X159500000Y-110067500D03*
%TD*%
D17*
%TO.P,C314,1*%
%TO.N,Net-(U1-VSP_RF)*%
X145432500Y-123000000D03*
%TO.P,C314,2*%
%TO.N,GND*%
X146567500Y-123000000D03*
%TD*%
%TO.P,C313,1*%
%TO.N,Net-(U1-VSP_A)*%
X138932500Y-116000000D03*
%TO.P,C313,2*%
%TO.N,GND*%
X140067500Y-116000000D03*
%TD*%
D10*
%TO.P,C307,1*%
%TO.N,Net-(U1-XTO)*%
X134500000Y-115932500D03*
%TO.P,C307,2*%
%TO.N,GND*%
X134500000Y-117067500D03*
%TD*%
D18*
%TO.P,J1,1,1*%
%TO.N,/1*%
X137340000Y-103000000D03*
%TO.P,J1,2,2*%
%TO.N,/3V3*%
X139880000Y-103000000D03*
%TO.P,J1,3,3*%
%TO.N,/SS*%
X142420000Y-103000000D03*
%TO.P,J1,4,4*%
%TO.N,/SCLK*%
X144960000Y-103000000D03*
%TO.P,J1,5,5*%
%TO.N,/MOSI*%
X147500000Y-103000000D03*
%TO.P,J1,6,6*%
%TO.N,/MISO*%
X150040000Y-103000000D03*
%TO.P,J1,7,7*%
%TO.N,/IRQ*%
X152580000Y-103000000D03*
%TO.P,J1,8,8*%
%TO.N,GND*%
X155120000Y-103000000D03*
%TD*%
D12*
%TO.P,C308,1*%
%TO.N,Net-(U1-XTI)*%
X128000000Y-117067500D03*
%TO.P,C308,2*%
%TO.N,GND*%
X128000000Y-115932500D03*
%TD*%
D19*
%TO.N,/RFO2*%
X147300000Y-117200000D02*
X146500000Y-118000000D01*
X147300000Y-114700000D02*
X147300000Y-117200000D01*
%TO.N,/RFO1*%
X146800000Y-116700000D02*
X146000000Y-117500000D01*
X146800000Y-114700000D02*
X146800000Y-116700000D01*
%TO.N,/3V3*%
X141800000Y-106700000D02*
X140800000Y-106700000D01*
X140800000Y-106700000D02*
X139000000Y-108500000D01*
X142050000Y-106950000D02*
X141800000Y-106700000D01*
X142050000Y-106950000D02*
X145600000Y-110500000D01*
X139880000Y-104780000D02*
X142050000Y-106950000D01*
X144000000Y-114000000D02*
X142500000Y-115500000D01*
X145600000Y-114000000D02*
X144000000Y-114000000D01*
X139880000Y-103000000D02*
X139880000Y-104780000D01*
%TO.N,/SS*%
X142420000Y-105920000D02*
X146300000Y-109800000D01*
X142420000Y-103000000D02*
X142420000Y-105920000D01*
%TO.N,/SCLK*%
X146800000Y-104840000D02*
X146800000Y-109800000D01*
X144960000Y-103000000D02*
X146800000Y-104840000D01*
%TO.N,/MOSI*%
X147300000Y-103200000D02*
X147300000Y-109800000D01*
X147500000Y-103000000D02*
X147300000Y-103200000D01*
%TO.N,/MISO*%
X147800000Y-105240000D02*
X147800000Y-109800000D01*
X150040000Y-103000000D02*
X147800000Y-105240000D01*
%TO.N,/IRQ*%
X148800000Y-106780000D02*
X148800000Y-109800000D01*
X152580000Y-103000000D02*
X148800000Y-106780000D01*
%TO.N,GND*%
X149300000Y-108820000D02*
X149300000Y-109800000D01*
X155120000Y-103000000D02*
X149300000Y-108820000D01*
X136367500Y-110432500D02*
X138000000Y-110432500D01*
X130825000Y-115975000D02*
X136367500Y-110432500D01*
X138750000Y-120750000D02*
X140750000Y-120750000D01*
X140750000Y-120750000D02*
X144000000Y-124000000D01*
X140067500Y-120067500D02*
X140750000Y-120750000D01*
X136500000Y-118500000D02*
X138750000Y-120750000D01*
X155120000Y-106120000D02*
X155120000Y-103000000D01*
X160000000Y-107500000D02*
X156500000Y-107500000D01*
X156500000Y-107500000D02*
X155120000Y-106120000D01*
X161000000Y-108500000D02*
X160000000Y-107500000D01*
X160432500Y-110067500D02*
X161000000Y-109500000D01*
X161000000Y-109500000D02*
X161000000Y-108500000D01*
X159500000Y-110067500D02*
X160432500Y-110067500D01*
X152232500Y-117767500D02*
X155500000Y-114500000D01*
X147800000Y-117767500D02*
X152232500Y-117767500D01*
X155500000Y-114500000D02*
X155500000Y-110067500D01*
X147800000Y-117767500D02*
X147800000Y-114700000D01*
X146000000Y-124000000D02*
X146567500Y-123432500D01*
X144000000Y-124000000D02*
X146000000Y-124000000D01*
X146567500Y-123432500D02*
X146567500Y-123000000D01*
X140067500Y-119500000D02*
X140067500Y-120067500D01*
X134932500Y-117067500D02*
X136500000Y-115500000D01*
X146567500Y-119000000D02*
X146567500Y-123000000D01*
X153567500Y-112000000D02*
X150500000Y-112000000D01*
X137000000Y-116500000D02*
X140465000Y-113035000D01*
X140067500Y-119500000D02*
X140067500Y-116000000D01*
X134500000Y-117067500D02*
X132217500Y-117067500D01*
X128000000Y-118500000D02*
X136500000Y-118500000D01*
X130825000Y-115975000D02*
X128042500Y-115975000D01*
X146567500Y-119000000D02*
X147800000Y-117767500D01*
X155500000Y-110067500D02*
X153567500Y-112000000D01*
X132217500Y-117067500D02*
X132175000Y-117025000D01*
X128000000Y-115932500D02*
X127390000Y-116542500D01*
X127390000Y-117890000D02*
X128000000Y-118500000D01*
X127390000Y-116542500D02*
X127390000Y-117890000D01*
X128042500Y-115975000D02*
X128000000Y-115932500D01*
X140465000Y-113035000D02*
X145565000Y-113035000D01*
X137000000Y-118000000D02*
X137000000Y-116500000D01*
X155500000Y-110067500D02*
X159500000Y-110067500D01*
X138000000Y-110432500D02*
X142000000Y-110432500D01*
X145565000Y-113035000D02*
X145600000Y-113000000D01*
X136500000Y-118500000D02*
X137000000Y-118000000D01*
X134500000Y-117067500D02*
X134932500Y-117067500D01*
%TO.N,Net-(U1-VSP_RF)*%
X145432500Y-119000000D02*
X145432500Y-115567500D01*
X145432500Y-115567500D02*
X146300000Y-114700000D01*
X145432500Y-119000000D02*
X145432500Y-123000000D01*
%TO.N,Net-(U1-VSP_A)*%
X138932500Y-116000000D02*
X138932500Y-119500000D01*
X141432500Y-113500000D02*
X145600000Y-113500000D01*
X138932500Y-116000000D02*
X141432500Y-113500000D01*
%TO.N,Net-(U1-XTO)*%
X132975000Y-115975000D02*
X133017500Y-115932500D01*
X132175000Y-115975000D02*
X132975000Y-115975000D01*
X134500000Y-115932500D02*
X138197500Y-112235000D01*
X138197500Y-112235000D02*
X144265000Y-112235000D01*
X144265000Y-112235000D02*
X144500000Y-112000000D01*
X133017500Y-115932500D02*
X134500000Y-115932500D01*
X144500000Y-112000000D02*
X145600000Y-112000000D01*
%TO.N,Net-(U1-AGD)*%
X153067500Y-108932500D02*
X155500000Y-108932500D01*
X150500000Y-110500000D02*
X151500000Y-110500000D01*
X155500000Y-108932500D02*
X159500000Y-108932500D01*
X151500000Y-110500000D02*
X153067500Y-108932500D01*
%TO.N,Net-(U1-VSP_D)*%
X138000000Y-111567500D02*
X142000000Y-111567500D01*
X142000000Y-111567500D02*
X142432500Y-111567500D01*
X142432500Y-111567500D02*
X142500000Y-111500000D01*
X142500000Y-111500000D02*
X145600000Y-111500000D01*
%TO.N,Net-(U1-XTI)*%
X140299314Y-112635000D02*
X134934314Y-118000000D01*
X144565685Y-112500000D02*
X144430685Y-112635000D01*
X144430685Y-112635000D02*
X140299314Y-112635000D01*
X134934314Y-118000000D02*
X131800000Y-118000000D01*
X131800000Y-118000000D02*
X130825000Y-117025000D01*
X130782500Y-117067500D02*
X130825000Y-117025000D01*
X128000000Y-117067500D02*
X130782500Y-117067500D01*
X145600000Y-112500000D02*
X144565685Y-112500000D01*
%TD*%
M02*
