%TF.GenerationSoftware,KiCad,Pcbnew,8.0.1*%
%TF.CreationDate,2024-07-06T23:02:20-04:00*%
%TF.ProjectId,ST25R3911B,53543235-5233-4393-9131-422e6b696361,rev?*%
%TF.SameCoordinates,Original*%
%TF.FileFunction,Soldermask,Top*%
%TF.FilePolarity,Negative*%
%FSLAX46Y46*%
G04 Gerber Fmt 4.6, Leading zero omitted, Abs format (unit mm)*
G04 Created by KiCad (PCBNEW 8.0.1) date 2024-07-06 23:02:20*
%MOMM*%
%LPD*%
G01*
G04 APERTURE LIST*
G04 Aperture macros list*
%AMRoundRect*
0 Rectangle with rounded corners*
0 $1 Rounding radius*
0 $2 $3 $4 $5 $6 $7 $8 $9 X,Y pos of 4 corners*
0 Add a 4 corners polygon primitive as box body*
4,1,4,$2,$3,$4,$5,$6,$7,$8,$9,$2,$3,0*
0 Add four circle primitives for the rounded corners*
1,1,$1+$1,$2,$3*
1,1,$1+$1,$4,$5*
1,1,$1+$1,$6,$7*
1,1,$1+$1,$8,$9*
0 Add four rect primitives between the rounded corners*
20,1,$1+$1,$2,$3,$4,$5,0*
20,1,$1+$1,$4,$5,$6,$7,0*
20,1,$1+$1,$6,$7,$8,$9,0*
20,1,$1+$1,$8,$9,$2,$3,0*%
G04 Aperture macros list end*
%ADD10RoundRect,0.155000X-0.155000X0.212500X-0.155000X-0.212500X0.155000X-0.212500X0.155000X0.212500X0*%
%ADD11R,0.838200X0.762000*%
%ADD12RoundRect,0.155000X0.155000X-0.212500X0.155000X0.212500X-0.155000X0.212500X-0.155000X-0.212500X0*%
%ADD13RoundRect,0.062500X-0.337500X-0.062500X0.337500X-0.062500X0.337500X0.062500X-0.337500X0.062500X0*%
%ADD14RoundRect,0.062500X-0.062500X-0.337500X0.062500X-0.337500X0.062500X0.337500X-0.062500X0.337500X0*%
%ADD15R,3.600000X3.600000*%
%ADD16RoundRect,0.155000X-0.212500X-0.155000X0.212500X-0.155000X0.212500X0.155000X-0.212500X0.155000X0*%
%ADD17C,1.524000*%
G04 APERTURE END LIST*
D10*
%TO.C,C312*%
X155500000Y-108932500D03*
X155500000Y-110067500D03*
%TD*%
D11*
%TO.C,U2*%
X132175000Y-115975000D03*
X130825000Y-115975000D03*
X130825000Y-117025000D03*
X132175000Y-117025000D03*
%TD*%
D12*
%TO.C,C311*%
X142000000Y-111567500D03*
X142000000Y-110432500D03*
%TD*%
D13*
%TO.C,U1*%
X145600000Y-110500000D03*
X145600000Y-111000000D03*
X145600000Y-111500000D03*
X145600000Y-112000000D03*
X145600000Y-112500000D03*
X145600000Y-113000000D03*
X145600000Y-113500000D03*
X145600000Y-114000000D03*
D14*
X146300000Y-114700000D03*
X146800000Y-114700000D03*
X147300000Y-114700000D03*
X147800000Y-114700000D03*
X148300000Y-114700000D03*
X148800000Y-114700000D03*
X149300000Y-114700000D03*
X149800000Y-114700000D03*
D13*
X150500000Y-114000000D03*
X150500000Y-113500000D03*
X150500000Y-113000000D03*
X150500000Y-112500000D03*
X150500000Y-112000000D03*
X150500000Y-111500000D03*
X150500000Y-111000000D03*
X150500000Y-110500000D03*
D14*
X149800000Y-109800000D03*
X149300000Y-109800000D03*
X148800000Y-109800000D03*
X148300000Y-109800000D03*
X147800000Y-109800000D03*
X147300000Y-109800000D03*
X146800000Y-109800000D03*
X146300000Y-109800000D03*
D15*
X148050000Y-112250000D03*
%TD*%
D12*
%TO.C,C315*%
X138000000Y-111567500D03*
X138000000Y-110432500D03*
%TD*%
D16*
%TO.C,C309*%
X138932500Y-119500000D03*
X140067500Y-119500000D03*
%TD*%
%TO.C,C310*%
X145432500Y-119000000D03*
X146567500Y-119000000D03*
%TD*%
D10*
%TO.C,C316*%
X159500000Y-108932500D03*
X159500000Y-110067500D03*
%TD*%
D16*
%TO.C,C314*%
X145432500Y-123000000D03*
X146567500Y-123000000D03*
%TD*%
%TO.C,C313*%
X138932500Y-116000000D03*
X140067500Y-116000000D03*
%TD*%
D10*
%TO.C,C307*%
X134500000Y-115932500D03*
X134500000Y-117067500D03*
%TD*%
D17*
%TO.C,J1*%
X137340000Y-103000000D03*
X139880000Y-103000000D03*
X142420000Y-103000000D03*
X144960000Y-103000000D03*
X147500000Y-103000000D03*
X150040000Y-103000000D03*
X152580000Y-103000000D03*
X155120000Y-103000000D03*
%TD*%
D12*
%TO.C,C308*%
X128000000Y-117067500D03*
X128000000Y-115932500D03*
%TD*%
M02*
